<svg width="64" height="64" viewBox="0 0 64 64" fill="none" xmlns="http://www.w3.org/2000/svg">
<path d="M18.054 31.267C18.8402 31.267 19.6087 31.0339 20.2624 30.5971C20.9161 30.1603 21.4256 29.5395 21.7264 28.8132C22.0273 28.0868 22.106 27.2876 21.9526 26.5165C21.7993 25.7455 21.4207 25.0372 20.8648 24.4813C20.3088 23.9254 19.6006 23.5468 18.8295 23.3934C18.0584 23.24 17.2592 23.3187 16.5328 23.6196C15.8065 23.9205 15.1857 24.4299 14.7489 25.0836C14.3121 25.7373 14.079 26.5058 14.079 27.292C14.0801 28.3459 14.4992 29.3564 15.2444 30.1016C15.9897 30.8468 17.0001 31.266 18.054 31.267ZM18.054 25.318C18.4447 25.318 18.8266 25.4339 19.1514 25.6509C19.4762 25.868 19.7293 26.1765 19.8788 26.5374C20.0282 26.8984 20.0673 27.2955 19.991 27.6787C19.9147 28.0618 19.7265 28.4137 19.4502 28.6899C19.1739 28.9661 18.8219 29.1541 18.4387 29.2302C18.0555 29.3063 17.6584 29.267 17.2975 29.1174C16.9366 28.9678 16.6283 28.7145 16.4114 28.3895C16.1945 28.0646 16.0788 27.6827 16.079 27.292C16.0795 26.7685 16.2878 26.2665 16.6581 25.8964C17.0284 25.5263 17.5305 25.3183 18.054 25.318Z" fill="#47A185"/>
<path d="M18.054 21.8C18.3192 21.8 18.5736 21.6947 18.7611 21.5071C18.9487 21.3196 19.054 21.0652 19.054 20.8V12.239C19.054 11.9738 18.9487 11.7194 18.7611 11.5319C18.5736 11.3444 18.3192 11.239 18.054 11.239C17.7888 11.239 17.5344 11.3444 17.3469 11.5319C17.1594 11.7194 17.054 11.9738 17.054 12.239V20.8C17.054 21.0652 17.1594 21.3196 17.3469 21.5071C17.5344 21.6947 17.7888 21.8 18.054 21.8Z" fill="#47A185"/>
<path d="M18.054 32.783C17.7888 32.783 17.5344 32.8883 17.3469 33.0759C17.1594 33.2634 17.054 33.5177 17.054 33.783V42.346C17.054 42.6112 17.1594 42.8655 17.3469 43.0531C17.5344 43.2406 17.7888 43.346 18.054 43.346C18.3192 43.346 18.5736 43.2406 18.7611 43.0531C18.9487 42.8655 19.054 42.6112 19.054 42.346V33.783C19.054 33.5177 18.9487 33.2634 18.7611 33.0759C18.5736 32.8883 18.3192 32.783 18.054 32.783Z" fill="#47A185"/>
<path d="M33.107 28.292C33.3722 28.292 33.6266 28.1866 33.8141 27.9991C34.0016 27.8116 34.107 27.5572 34.107 27.292C34.107 27.0268 34.0016 26.7724 33.8141 26.5849C33.6266 26.3973 33.3722 26.292 33.107 26.292H24.544C24.2788 26.292 24.0244 26.3973 23.8369 26.5849C23.6494 26.7724 23.544 27.0268 23.544 27.292C23.544 27.5572 23.6494 27.8116 23.8369 27.9991C24.0244 28.1866 24.2788 28.292 24.544 28.292H33.107Z" fill="#47A185"/>
<path d="M3 28.292H11.563C11.8282 28.292 12.0826 28.1866 12.2701 27.9991C12.4576 27.8116 12.563 27.5572 12.563 27.292C12.563 27.0268 12.4576 26.7724 12.2701 26.5849C12.0826 26.3973 11.8282 26.292 11.563 26.292H3C2.73478 26.292 2.48043 26.3973 2.29289 26.5849C2.10536 26.7724 2 27.0268 2 27.292C2 27.5572 2.10536 27.8116 2.29289 27.9991C2.48043 28.1866 2.73478 28.292 3 28.292Z" fill="#47A185"/>
<path d="M22.329 24.018C22.5942 24.0179 22.8485 23.9125 23.036 23.725L28.677 18.084C28.8592 17.8954 28.96 17.6428 28.9577 17.3806C28.9554 17.1184 28.8502 16.8676 28.6648 16.6822C28.4794 16.4968 28.2286 16.3916 27.9664 16.3893C27.7042 16.387 27.4516 16.4878 27.263 16.67L21.622 22.311C21.4822 22.4508 21.387 22.629 21.3484 22.823C21.3099 23.0169 21.3297 23.2179 21.4053 23.4006C21.481 23.5833 21.6091 23.7395 21.7736 23.8494C21.938 23.9593 22.1313 24.018 22.329 24.018Z" fill="#47A185"/>
<path d="M13.072 30.86L7.43099 36.5C7.33548 36.5922 7.2593 36.7026 7.20689 36.8246C7.15448 36.9466 7.12689 37.0778 7.12574 37.2106C7.12459 37.3433 7.14989 37.475 7.20017 37.5979C7.25045 37.7208 7.3247 37.8325 7.41859 37.9264C7.51249 38.0202 7.62414 38.0945 7.74704 38.1448C7.86993 38.1951 8.00161 38.2204 8.13439 38.2192C8.26717 38.2181 8.39839 38.1905 8.52039 38.1381C8.6424 38.0856 8.75274 38.0095 8.84499 37.914L14.486 32.273C14.6681 32.0844 14.7689 31.8318 14.7667 31.5696C14.7644 31.3074 14.6592 31.0565 14.4738 30.8711C14.2884 30.6857 14.0376 30.5806 13.7754 30.5783C13.5132 30.576 13.2606 30.6768 13.072 30.859V30.86Z" fill="#47A185"/>
<path d="M13.072 23.725C13.2606 23.9072 13.5132 24.0079 13.7754 24.0057C14.0376 24.0034 14.2884 23.8982 14.4738 23.7128C14.6592 23.5274 14.7644 23.2766 14.7667 23.0144C14.769 22.7522 14.6682 22.4996 14.486 22.311L8.84501 16.67C8.65641 16.4878 8.40381 16.387 8.14161 16.3893C7.87941 16.3916 7.6286 16.4968 7.44319 16.6822C7.25778 16.8676 7.15262 17.1184 7.15034 17.3806C7.14806 17.6428 7.24885 17.8954 7.43101 18.084L13.072 23.725Z" fill="#47A185"/>
<path d="M21.8 31.67C21.6886 31.7396 21.5921 31.8305 21.5158 31.9374C21.4396 32.0443 21.3851 32.1652 21.3556 32.2931C21.3261 32.4211 21.322 32.5536 21.3437 32.6831C21.3654 32.8127 21.4124 32.9366 21.482 33.048C24.067 37.189 27.503 44.734 29.192 57.169C29.2244 57.4085 29.3424 57.6281 29.5242 57.7873C29.706 57.9465 29.9393 58.0345 30.181 58.035C30.2265 58.0352 30.272 58.0318 30.317 58.025C30.5796 57.9892 30.8173 57.8506 30.9778 57.6397C31.1384 57.4287 31.2085 57.1627 31.173 56.9C29.438 44.114 25.873 36.3 23.173 31.989C23.0326 31.7653 22.8095 31.6062 22.5523 31.5465C22.295 31.4867 22.0246 31.5311 21.8 31.67Z" fill="#47A185"/>
<path d="M48.824 36.2779C49.4976 36.2779 50.1562 36.0782 50.7163 35.7039C51.2764 35.3297 51.7129 34.7977 51.9707 34.1754C52.2285 33.553 52.296 32.8682 52.1646 32.2075C52.0331 31.5468 51.7087 30.9399 51.2324 30.4635C50.7561 29.9872 50.1492 29.6628 49.4885 29.5314C48.8278 29.4 48.1429 29.4674 47.5206 29.7252C46.8982 29.983 46.3663 30.4196 45.992 30.9797C45.6178 31.5398 45.418 32.1983 45.418 32.8719C45.4191 33.7749 45.7782 34.6407 46.4168 35.2792C47.0553 35.9177 47.921 36.2769 48.824 36.2779ZM48.824 31.4659C49.1021 31.4659 49.3739 31.5484 49.6051 31.7029C49.8363 31.8574 50.0166 32.077 50.123 32.3339C50.2294 32.5908 50.2572 32.8735 50.203 33.1462C50.1487 33.419 50.0148 33.6695 49.8182 33.8661C49.6216 34.0628 49.371 34.1967 49.0983 34.2509C48.8256 34.3052 48.5429 34.2773 48.2859 34.1709C48.029 34.0645 47.8094 33.8843 47.655 33.6531C47.5005 33.4219 47.418 33.15 47.418 32.8719C47.4185 32.4992 47.5668 32.1419 47.8304 31.8783C48.094 31.6148 48.4513 31.4665 48.824 31.4659Z" fill="#47A185"/>
<path d="M48.824 28.622C49.0892 28.622 49.3436 28.5166 49.5311 28.3291C49.7186 28.1415 49.824 27.8872 49.824 27.622V20.7C49.824 20.4347 49.7186 20.1804 49.5311 19.9928C49.3436 19.8053 49.0892 19.7 48.824 19.7C48.5588 19.7 48.3044 19.8053 48.1169 19.9928C47.9294 20.1804 47.824 20.4347 47.824 20.7V27.6259C47.8251 27.8905 47.9309 28.1438 48.1183 28.3305C48.3057 28.5171 48.5595 28.622 48.824 28.622Z" fill="#47A185"/>
<path d="M49.824 45.048V38.121C49.824 37.8558 49.7186 37.6014 49.5311 37.4139C49.3436 37.2263 49.0892 37.121 48.824 37.121C48.5588 37.121 48.3044 37.2263 48.1169 37.4139C47.9294 37.6014 47.824 37.8558 47.824 38.121V45.048C47.824 45.3132 47.9294 45.5675 48.1169 45.7551C48.3044 45.9426 48.5588 46.048 48.824 46.048C49.0892 46.048 49.3436 45.9426 49.5311 45.7551C49.7186 45.5675 49.824 45.3132 49.824 45.048Z" fill="#47A185"/>
<path d="M36.648 33.872H43.574C43.8392 33.872 44.0936 33.7666 44.2811 33.5791C44.4687 33.3915 44.574 33.1372 44.574 32.872C44.574 32.6067 44.4687 32.3524 44.2811 32.1648C44.0936 31.9773 43.8392 31.8719 43.574 31.8719H36.648C36.3828 31.8719 36.1284 31.9773 35.9409 32.1648C35.7534 32.3524 35.648 32.6067 35.648 32.872C35.648 33.1372 35.7534 33.3915 35.9409 33.5791C36.1284 33.7666 36.3828 33.872 36.648 33.872Z" fill="#47A185"/>
<path d="M54.074 31.8719C53.8088 31.8719 53.5544 31.9773 53.3669 32.1648C53.1794 32.3524 53.074 32.6067 53.074 32.872C53.074 33.1372 53.1794 33.3915 53.3669 33.5791C53.5544 33.7666 53.8088 33.872 54.074 33.872H61C61.2652 33.872 61.5196 33.7666 61.7071 33.5791C61.8946 33.3915 62 33.1372 62 32.872C62 32.6067 61.8946 32.3524 61.7071 32.1648C61.5196 31.9773 61.2652 31.8719 61 31.8719H54.074Z" fill="#47A185"/>
<path d="M44.659 30.121C44.7513 30.2165 44.8616 30.2927 44.9836 30.3451C45.1056 30.3975 45.2368 30.4251 45.3696 30.4262C45.5024 30.4274 45.6341 30.4021 45.757 30.3518C45.8799 30.3015 45.9915 30.2273 46.0854 30.1334C46.1793 30.0395 46.2535 29.9278 46.3038 29.8049C46.3541 29.682 46.3794 29.5503 46.3783 29.4176C46.3771 29.2848 46.3495 29.1536 46.2971 29.0316C46.2447 28.9096 46.1685 28.7992 46.073 28.707L41.511 24.145C41.3206 23.9728 41.0713 23.8805 40.8147 23.887C40.5581 23.8936 40.3138 23.9987 40.1325 24.1804C39.9512 24.3621 39.8467 24.6065 39.8406 24.8632C39.8346 25.1198 39.9274 25.3689 40.1 25.559L44.659 30.121Z" fill="#47A185"/>
<path d="M52.989 35.623C52.8968 35.5275 52.7864 35.4513 52.6644 35.3989C52.5424 35.3465 52.4112 35.3189 52.2784 35.3178C52.1456 35.3166 52.0139 35.3419 51.891 35.3922C51.7682 35.4425 51.6565 35.5167 51.5626 35.6106C51.4687 35.7045 51.3945 35.8162 51.3442 35.9391C51.2939 36.062 51.2686 36.1937 51.2698 36.3264C51.2709 36.4592 51.2985 36.5904 51.3509 36.7124C51.4033 36.8344 51.4795 36.9448 51.575 37.037L56.137 41.6C56.3256 41.7822 56.5782 41.883 56.8404 41.8807C57.1026 41.8784 57.3534 41.7733 57.5388 41.5879C57.7242 41.4024 57.8294 41.1516 57.8317 40.8894C57.834 40.6272 57.7332 40.3746 57.551 40.186L52.989 35.623Z" fill="#47A185"/>
<path d="M52.282 30.414C52.5472 30.4139 52.8015 30.3085 52.989 30.121L57.551 25.559C57.7332 25.3704 57.834 25.1178 57.8317 24.8556C57.8294 24.5934 57.7242 24.3426 57.5388 24.1571C57.3534 23.9717 57.1026 23.8666 56.8404 23.8643C56.5782 23.862 56.3256 23.9628 56.137 24.145L51.575 28.707C51.4352 28.8468 51.34 29.025 51.3014 29.2189C51.2629 29.4129 51.2827 29.6139 51.3583 29.7966C51.434 29.9793 51.5621 30.1355 51.7266 30.2454C51.891 30.3553 52.0843 30.4139 52.282 30.414Z" fill="#47A185"/>
<path d="M45.9 36.25C45.7886 36.1804 45.6645 36.1335 45.535 36.1119C45.4054 36.0903 45.2729 36.0944 45.1449 36.124C45.0169 36.1537 44.8961 36.2082 44.7892 36.2845C44.6823 36.3609 44.5915 36.4575 44.522 36.569C42.337 40.069 39.436 46.419 38.028 56.794C37.9924 57.0567 38.0626 57.3227 38.2231 57.5337C38.3836 57.7446 38.6213 57.8832 38.884 57.919C38.9291 57.9249 38.9745 57.9279 39.02 57.928C39.2617 57.9275 39.495 57.8395 39.6768 57.6803C39.8586 57.5211 39.9766 57.3015 40.009 57.062C41.37 47.04 44.137 40.962 46.218 37.628C46.2876 37.5166 46.3346 37.3926 46.3563 37.2631C46.378 37.1336 46.3739 37.0011 46.3444 36.8731C46.3149 36.7452 46.2604 36.6243 46.1842 36.5174C46.1079 36.4104 46.0114 36.3196 45.9 36.25Z" fill="#47A185"/>
<path d="M57.537 45.29C57.2718 45.29 57.0174 45.3954 56.8299 45.5829C56.6424 45.7705 56.537 46.0248 56.537 46.29V47.926H54.9C54.6348 47.926 54.3804 48.0314 54.1929 48.2189C54.0053 48.4065 53.9 48.6608 53.9 48.926C53.9 49.1913 54.0053 49.4456 54.1929 49.6331C54.3804 49.8207 54.6348 49.926 54.9 49.926H56.537V51.563C56.537 51.8283 56.6424 52.0826 56.8299 52.2701C57.0174 52.4577 57.2718 52.563 57.537 52.563C57.8022 52.563 58.0566 52.4577 58.2441 52.2701C58.4316 52.0826 58.537 51.8283 58.537 51.563V49.926H60.173C60.4382 49.926 60.6926 49.8207 60.8801 49.6331C61.0676 49.4456 61.173 49.1913 61.173 48.926C61.173 48.6608 61.0676 48.4065 60.8801 48.2189C60.6926 48.0314 60.4382 47.926 60.173 47.926H58.537V46.29C58.537 46.0248 58.4316 45.7705 58.2441 45.5829C58.0566 45.3954 57.8022 45.29 57.537 45.29Z" fill="#47A185"/>
<path d="M28.826 10.6H30.462V12.237C30.462 12.5022 30.5673 12.7565 30.7549 12.9441C30.9424 13.1316 31.1968 13.237 31.462 13.237C31.7272 13.237 31.9816 13.1316 32.1691 12.9441C32.3566 12.7565 32.462 12.5022 32.462 12.237V10.6H34.1C34.3652 10.6 34.6196 10.4946 34.8071 10.3071C34.9946 10.1195 35.1 9.86518 35.1 9.59997C35.1 9.33475 34.9946 9.08039 34.8071 8.89286C34.6196 8.70532 34.3652 8.59997 34.1 8.59997H32.462V6.96497C32.462 6.69975 32.3566 6.4454 32.1691 6.25786C31.9816 6.07032 31.7272 5.96497 31.462 5.96497C31.1968 5.96497 30.9424 6.07032 30.7549 6.25786C30.5673 6.4454 30.462 6.69975 30.462 6.96497V8.59997H28.826C28.5608 8.59997 28.3064 8.70532 28.1189 8.89286C27.9313 9.08039 27.826 9.33475 27.826 9.59997C27.826 9.86518 27.9313 10.1195 28.1189 10.3071C28.3064 10.4946 28.5608 10.6 28.826 10.6Z" fill="#47A185"/>
<path d="M33.9 38.255V39.892H32.264C31.9988 39.892 31.7444 39.9974 31.5569 40.1849C31.3694 40.3724 31.264 40.6268 31.264 40.892C31.264 41.1572 31.3694 41.4116 31.5569 41.5991C31.7444 41.7866 31.9988 41.892 32.264 41.892H33.9V43.528C33.9 43.7932 34.0054 44.0476 34.1929 44.2351C34.3804 44.4226 34.6348 44.528 34.9 44.528C35.1652 44.528 35.4196 44.4226 35.6071 44.2351C35.7946 44.0476 35.9 43.7932 35.9 43.528V41.892H37.537C37.8022 41.892 38.0566 41.7866 38.2441 41.5991C38.4317 41.4116 38.537 41.1572 38.537 40.892C38.537 40.6268 38.4317 40.3724 38.2441 40.1849C38.0566 39.9974 37.8022 39.892 37.537 39.892H35.9V38.255C35.9 37.9898 35.7946 37.7354 35.6071 37.5479C35.4196 37.3604 35.1652 37.255 34.9 37.255C34.6348 37.255 34.3804 37.3604 34.1929 37.5479C34.0054 37.7354 33.9 37.9898 33.9 38.255Z" fill="#47A185"/>
<path d="M6.28201 47.685C6.28201 47.9502 6.38737 48.2045 6.57491 48.3921C6.76244 48.5796 7.0168 48.685 7.28201 48.685H8.91801V50.321C8.91801 50.5862 9.02337 50.8405 9.21091 51.0281C9.39844 51.2156 9.6528 51.321 9.91801 51.321C10.1832 51.321 10.4376 51.2156 10.6251 51.0281C10.8127 50.8405 10.918 50.5862 10.918 50.321V48.685H12.555C12.8202 48.685 13.0746 48.5796 13.2621 48.3921C13.4497 48.2045 13.555 47.9502 13.555 47.685C13.555 47.4198 13.4497 47.1654 13.2621 46.9779C13.0746 46.7903 12.8202 46.685 12.555 46.685H10.918V45.048C10.918 44.7828 10.8127 44.5284 10.6251 44.3409C10.4376 44.1533 10.1832 44.048 9.91801 44.048C9.6528 44.048 9.39844 44.1533 9.21091 44.3409C9.02337 44.5284 8.91801 44.7828 8.91801 45.048V46.685H7.28201C7.0168 46.685 6.76244 46.7903 6.57491 46.9779C6.38737 47.1654 6.28201 47.4198 6.28201 47.685Z" fill="#47A185"/>
<path d="M54.9 15.875H56.537V17.512C56.537 17.7772 56.6424 18.0316 56.8299 18.2191C57.0174 18.4067 57.2718 18.512 57.537 18.512C57.8022 18.512 58.0566 18.4067 58.2441 18.2191C58.4316 18.0316 58.537 17.7772 58.537 17.512V15.875H60.173C60.4382 15.875 60.6926 15.7697 60.8801 15.5821C61.0676 15.3946 61.173 15.1402 61.173 14.875C61.173 14.6098 61.0676 14.3554 60.8801 14.1679C60.6926 13.9804 60.4382 13.875 60.173 13.875H58.537V12.239C58.537 11.9738 58.4316 11.7194 58.2441 11.5319C58.0566 11.3444 57.8022 11.239 57.537 11.239C57.2718 11.239 57.0174 11.3444 56.8299 11.5319C56.6424 11.7194 56.537 11.9738 56.537 12.239V13.875H54.9C54.6348 13.875 54.3804 13.9804 54.1929 14.1679C54.0053 14.3554 53.9 14.6098 53.9 14.875C53.9 15.1402 54.0053 15.3946 54.1929 15.5821C54.3804 15.7697 54.6348 15.875 54.9 15.875Z" fill="#47A185"/>
</svg>
