<svg width="30" height="30" viewBox="0 0 30 30" fill="none" xmlns="http://www.w3.org/2000/svg">
<g clip-path="url(#clip0_1_204)">
<path fill-rule="evenodd" clip-rule="evenodd" d="M2.08198 11.989C0.842001 12.668 0 13.986 0 15.5V21.4999C0 23.3709 1.28502 24.9419 3.02002 25.3789C3.20802 27.1339 4.69304 28.5 6.49801 28.5H6.50003C8.26305 28.5 9.72205 27.196 9.96501 25.5H20.035C20.2781 27.196 21.737 28.5 23.5 28.5C25.305 28.5 26.791 27.134 26.98 25.3789C28.715 24.9419 30.0001 23.3709 30.0001 21.4999V15.5C30.0001 13.9859 29.1581 12.6679 27.9181 11.9889L26.463 4.716C26.089 2.84601 24.447 1.5 22.541 1.5C18.696 1.5 11.304 1.5 7.45898 1.5C5.553 1.5 3.91096 2.84601 3.53697 4.716L2.08198 11.989ZM22.086 25.5C22.291 26.083 22.847 26.4999 23.5 26.4999C24.1531 26.4999 24.7091 26.0829 24.914 25.5H22.086ZM5.08499 25.5C5.29001 26.083 5.84502 26.4999 6.49801 26.4999H6.50003C7.15302 26.4999 7.70904 26.0829 7.914 25.5H5.08499ZM20 23.5H26C27.105 23.5 28 22.605 28 21.5V15.5C28 14.395 27.105 13.5 26 13.5H4.00003C2.89503 13.5 2.00001 14.395 2.00001 15.5V21.5C2.00001 22.605 2.89503 23.5 4.00003 23.5H10C10 21.291 11.791 19.5 14 19.5H16C18.209 19.5 20 21.291 20 23.5ZM18 23.5H12C12 22.395 12.895 21.5 14 21.5H16C17.105 21.5 18 22.395 18 23.5ZM7.00001 15.5C5.34402 15.5 4.00003 16.844 4.00003 18.5C4.00003 20.1559 5.34402 21.4999 7.00001 21.4999C8.656 21.4999 10 20.1559 10 18.5C10 16.844 8.656 15.5 7.00001 15.5ZM23 15.5C21.344 15.5 20 16.844 20 18.5C20 20.1559 21.344 21.4999 23 21.4999C24.656 21.4999 26 20.1559 26 18.5C26 16.844 24.656 15.5 23 15.5ZM7.00001 17.5C7.55201 17.5 7.99999 17.948 7.99999 18.5C7.99999 19.0519 7.55201 19.4999 7.00001 19.4999C6.44802 19.4999 6.00004 19.0519 6.00004 18.5C5.99998 17.948 6.44802 17.5 7.00001 17.5ZM23 17.5C23.552 17.5 24 17.948 24 18.5C24 19.0519 23.552 19.4999 23 19.4999C22.448 19.4999 22 19.0519 22 18.5C22 17.948 22.448 17.5 23 17.5ZM25.78 11.5H4.21999L5.49798 5.10795C5.68497 4.17292 6.50599 3.49995 7.45898 3.49995H22.541C23.494 3.49995 24.315 4.17292 24.502 5.10795L25.78 11.5Z" fill="white"/>
</g>
<defs>
<clipPath id="clip0_1_204">
<rect width="30" height="30" fill="white"/>
</clipPath>
</defs>
</svg>
