<svg width="64" height="64" viewBox="0 0 64 64" fill="none" xmlns="http://www.w3.org/2000/svg">
<path d="M60.706 25.817H58.415C56.6872 20.3659 53.319 15.5809 48.7703 12.1154C44.2216 8.64991 38.7142 6.67279 33 6.454V4H34.746C35.0112 4 35.2656 3.89464 35.4531 3.70711C35.6406 3.51957 35.746 3.26522 35.746 3C35.746 2.73478 35.6406 2.48043 35.4531 2.29289C35.2656 2.10536 35.0112 2 34.746 2H29.256C28.9908 2 28.7364 2.10536 28.5489 2.29289C28.3614 2.48043 28.256 2.73478 28.256 3C28.256 3.26522 28.3614 3.51957 28.5489 3.70711C28.7364 3.89464 28.9908 4 29.256 4H31V6.454C25.2861 6.6723 19.779 8.64931 15.2309 12.1149C10.6827 15.5806 7.31546 20.3658 5.589 25.817H3.289C3.02378 25.817 2.76943 25.9224 2.58189 26.1099C2.39436 26.2974 2.289 26.5518 2.289 26.817V32.309C2.289 32.5742 2.39436 32.8286 2.58189 33.0161C2.76943 33.2036 3.02378 33.309 3.289 33.309H15.986L30.336 51.423C30.4858 51.6121 30.6989 51.7407 30.936 51.785L45.751 54.568L46.633 55.429L46.164 55.858C45.7699 56.2201 45.5356 56.7237 45.5123 57.2584C45.4891 57.793 45.6789 58.3151 46.04 58.71L48.62 61.527C48.7987 61.7229 49.0144 61.8814 49.2547 61.9935C49.495 62.1056 49.7551 62.169 50.02 62.18H50.111C50.6154 62.181 51.1015 61.9913 51.472 61.649L60.957 52.962C61.351 52.5999 61.5853 52.0964 61.6088 51.5618C61.6322 51.0272 61.4428 50.5052 61.082 50.11L58.5 47.3C58.1508 46.9211 57.6698 46.6903 57.1558 46.655C56.6418 46.6196 56.1337 46.7825 55.736 47.11C54.7097 44.3789 52.9729 41.9714 50.705 40.136C48.5824 38.3203 46.9925 35.9625 46.105 33.314H60.705C60.9702 33.314 61.2246 33.2086 61.4121 33.0211C61.5996 32.8336 61.705 32.5792 61.705 32.314V26.817C61.705 26.552 61.5998 26.2978 61.4125 26.1102C61.2251 25.9227 60.971 25.8173 60.706 25.817ZM32 8.412C37.3584 8.4273 42.5789 10.1116 46.9359 13.2309C51.2928 16.3502 54.5697 20.7494 56.311 25.817H7.693C9.43267 20.7491 12.7086 16.3495 17.065 13.23C21.4215 10.1106 26.6419 8.4265 32 8.412ZM59.606 51.49L50.121 60.178C50.1175 60.1813 50.1128 60.1831 50.108 60.1831C50.1032 60.1831 50.0985 60.1813 50.095 60.178L47.515 57.335L57.026 48.648L59.606 51.49ZM49.445 41.684C51.6254 43.4822 53.2595 45.8541 54.163 48.532L48.11 54.076L46.932 52.926C46.7909 52.7879 46.612 52.6946 46.418 52.658L31.672 49.888L18.537 33.309H22.242L33.342 44.717C33.509 44.8885 33.7316 44.9949 33.97 45.017L41.197 45.662C41.2266 45.6635 41.2564 45.6635 41.286 45.662C41.4178 45.6619 41.5483 45.6357 41.67 45.585L43.219 44.939C43.3465 44.8855 43.4616 44.8061 43.5568 44.7059C43.6521 44.6056 43.7256 44.4867 43.7726 44.3567C43.8196 44.2266 43.8391 44.0882 43.8298 43.9502C43.8206 43.8122 43.7829 43.6777 43.719 43.555C43.69 43.498 40.973 38.209 41.14 33.306H43.986C44.9668 36.5634 46.8614 39.471 49.445 41.684ZM25.033 33.309H39.145C39.1978 36.8324 39.9934 40.3051 41.48 43.5L41.13 43.646L34.518 43.056L25.033 33.309ZM59.706 31.309H4.294V27.817H59.706V31.309Z" fill="#47A185"/>
</svg>
