<svg width="64" height="64" viewBox="0 0 64 64" fill="none" xmlns="http://www.w3.org/2000/svg">
<path d="M2.99951 32.2832H6.05225V60.4473C6.05225 61 6.5 61.4473 7.05225 61.4473H56.9609C57.5132 61.4473 57.9609 61 57.9609 60.4473V32.2832H61.0005C61.5527 32.2832 62.0005 31.8359 62.0005 31.2832V15.9844C62.0005 15.4316 61.5527 14.9844 61.0005 14.9844H43.1785C44.5573 13.6693 45.4219 11.8197 45.4219 9.76855C45.4219 5.79004 42.1851 2.55273 38.2061 2.55273C35.5621 2.55273 33.2528 3.99158 32 6.12445C30.7472 3.99158 28.4379 2.55273 25.7939 2.55273C21.8149 2.55273 18.5781 5.79004 18.5781 9.76855C18.5781 11.8197 19.4427 13.6693 20.8215 14.9844H2.99951C2.44727 14.9844 1.99951 15.4316 1.99951 15.9844V31.2832C1.99951 31.8359 2.44727 32.2832 2.99951 32.2832ZM8.05225 32.2832H28.2832V59.4473H8.05225V32.2832ZM31.9966 16.9844H32.0034H33.7168V59.4473H30.2832V16.9844H31.9966ZM55.9609 59.4473H35.7168V32.2832H55.9609V59.4473ZM60.0005 16.9844V30.2832H35.7168V16.9844H38.2061H60.0005ZM33.0034 9.76855C33.0034 6.89258 35.3374 4.55273 38.2061 4.55273C41.082 4.55273 43.4219 6.89258 43.4219 9.76855C43.4219 12.6445 41.082 14.9844 38.2061 14.9844H33.0034V9.76855ZM20.5781 9.76855C20.5781 6.89258 22.918 4.55273 25.7939 4.55273C28.6626 4.55273 30.9966 6.89258 30.9966 9.76855V14.9844H25.7939C22.918 14.9844 20.5781 12.6445 20.5781 9.76855ZM3.99951 16.9844H25.7939H28.2832V30.2832H3.99951V16.9844Z" fill="#47A185"/>
</svg>
