<svg width="254" height="306" viewBox="0 0 254 306" fill="none" xmlns="http://www.w3.org/2000/svg">
<path d="M38.25 51C38.25 58.0416 43.9584 63.75 51 63.75C58.0416 63.75 63.75 58.0416 63.75 51C63.75 43.9584 58.0416 38.25 51 38.25C43.9584 38.25 38.25 43.9584 38.25 51Z" fill="#47A185" stroke="#47A185" stroke-width="1.66667"/>
<path d="M140.25 51C140.25 58.0416 145.958 63.75 153 63.75C160.042 63.75 165.75 58.0416 165.75 51C165.75 43.9584 160.042 38.25 153 38.25C145.958 38.25 140.25 43.9584 140.25 51Z" fill="#47A185" stroke="#47A185" stroke-width="1.66667"/>
<path d="M242.25 51C242.25 58.0416 247.958 63.75 255 63.75C262.042 63.75 267.75 58.0416 267.75 51C267.75 43.9584 262.042 38.25 255 38.25C247.958 38.25 242.25 43.9584 242.25 51Z" fill="#47A185" stroke="#47A185" stroke-width="1.66667"/>
<path d="M38.25 153C38.25 160.042 43.9584 165.75 51 165.75C58.0416 165.75 63.75 160.042 63.75 153C63.75 145.958 58.0416 140.25 51 140.25C43.9584 140.25 38.25 145.958 38.25 153Z" fill="#47A185" stroke="#47A185" stroke-width="1.66667"/>
<path d="M140.25 153C140.25 160.042 145.958 165.75 153 165.75C160.042 165.75 165.75 160.042 165.75 153C165.75 145.958 160.042 140.25 153 140.25C145.958 140.25 140.25 145.958 140.25 153Z" fill="#47A185" stroke="#47A185" stroke-width="1.66667"/>
<path d="M242.25 153C242.25 160.042 247.958 165.75 255 165.75C262.042 165.75 267.75 160.042 267.75 153C267.75 145.958 262.042 140.25 255 140.25C247.958 140.25 242.25 145.958 242.25 153Z" fill="#47A185" stroke="#47A185" stroke-width="1.66667"/>
<path d="M38.25 255C38.25 262.042 43.9584 267.75 51 267.75C58.0416 267.75 63.75 262.042 63.75 255C63.75 247.958 58.0416 242.25 51 242.25C43.9584 242.25 38.25 247.958 38.25 255Z" fill="#47A185" stroke="#47A185" stroke-width="1.66667"/>
<path d="M140.25 255C140.25 262.042 145.958 267.75 153 267.75C160.042 267.75 165.75 262.042 165.75 255C165.75 247.958 160.042 242.25 153 242.25C145.958 242.25 140.25 247.958 140.25 255Z" fill="#47A185" stroke="#47A185" stroke-width="1.66667"/>
<path d="M242.25 255C242.25 262.042 247.958 267.75 255 267.75C262.042 267.75 267.75 262.042 267.75 255C267.75 247.958 262.042 242.25 255 242.25C247.958 242.25 242.25 247.958 242.25 255Z" fill="#47A185" stroke="#47A185" stroke-width="1.66667"/>
</svg>
