<svg width="13" height="13" viewBox="0 0 13 13" fill="none" xmlns="http://www.w3.org/2000/svg">
<path d="M6.59986 1.31807C8.17925 1.31807 8.39462 1.31807 9.04074 1.31807C9.61506 1.31807 9.90223 1.46165 10.1176 1.53344C10.4048 1.67702 10.6201 1.74881 10.8355 1.96419C11.0509 2.17956 11.1945 2.39493 11.2662 2.68209C11.338 2.89746 11.4098 3.18463 11.4816 3.75895C11.4816 4.40507 11.4816 4.54865 11.4816 6.19983C11.4816 7.85102 11.4816 7.9946 11.4816 8.64071C11.4816 9.21504 11.338 9.5022 11.2662 9.71757C11.1227 10.0047 11.0509 10.2201 10.8355 10.4355C10.6201 10.6509 10.4048 10.7944 10.1176 10.8662C9.90223 10.938 9.61506 11.0098 9.04074 11.0816C8.39462 11.0816 8.25104 11.0816 6.59986 11.0816C4.94867 11.0816 4.80509 11.0816 4.15898 11.0816C3.58465 11.0816 3.29749 10.938 3.08212 10.8662C2.79495 10.7226 2.57958 10.6509 2.36421 10.4355C2.14884 10.2201 2.00526 10.0047 1.93347 9.71757C1.86168 9.5022 1.78989 9.21504 1.71809 8.64071C1.71809 7.9946 1.71809 7.85102 1.71809 6.19983C1.71809 4.54865 1.71809 4.40507 1.71809 3.75895C1.71809 3.18463 1.86168 2.89746 1.93347 2.68209C2.07705 2.39493 2.14884 2.17956 2.36421 1.96419C2.57958 1.74881 2.79495 1.60523 3.08212 1.53344C3.29749 1.46165 3.58465 1.38986 4.15898 1.31807C4.80509 1.31807 5.02046 1.31807 6.59986 1.31807ZM6.59986 0.241211C4.94867 0.241211 4.80509 0.241211 4.15898 0.241211C3.51286 0.241211 3.08212 0.384793 2.72316 0.528374C2.36421 0.671955 2.00526 0.887327 1.6463 1.24628C1.28735 1.60523 1.14377 1.8924 0.928398 2.32314C0.784817 2.68209 0.713026 3.11284 0.641235 3.75895C0.641235 4.40507 0.641235 4.62044 0.641235 6.19983C0.641235 7.85102 0.641235 7.9946 0.641235 8.64071C0.641235 9.28683 0.784817 9.71757 0.928398 10.0765C1.07198 10.4355 1.28735 10.7944 1.6463 11.1534C2.00526 11.5123 2.29242 11.6559 2.72316 11.8713C3.08212 12.0149 3.51286 12.0867 4.15898 12.1585C4.80509 12.1585 5.02046 12.1585 6.59986 12.1585C8.17925 12.1585 8.39462 12.1585 9.04074 12.1585C9.68685 12.1585 10.1176 12.0149 10.4766 11.8713C10.8355 11.7277 11.1945 11.5123 11.5534 11.1534C11.9124 10.7944 12.0559 10.5073 12.2713 10.0765C12.4149 9.71757 12.4867 9.28683 12.5585 8.64071C12.5585 7.9946 12.5585 7.77923 12.5585 6.19983C12.5585 4.62044 12.5585 4.40507 12.5585 3.75895C12.5585 3.11284 12.4149 2.68209 12.2713 2.32314C12.1277 1.96419 11.9124 1.60523 11.5534 1.24628C11.1945 0.887327 10.9073 0.743746 10.4766 0.528374C10.1176 0.384793 9.68685 0.313002 9.04074 0.241211C8.39462 0.241211 8.25104 0.241211 6.59986 0.241211Z" fill="#2C3058"/>
<path d="M6.59986 3.11284C4.87688 3.11284 3.51286 4.47686 3.51286 6.19983C3.51286 7.92281 4.87688 9.28683 6.59986 9.28683C8.32283 9.28683 9.68685 7.92281 9.68685 6.19983C9.68685 4.47686 8.32283 3.11284 6.59986 3.11284ZM6.59986 8.20997C5.523 8.20997 4.58972 7.34848 4.58972 6.19983C4.58972 5.12297 5.45121 4.1897 6.59986 4.1897C7.67672 4.1897 8.60999 5.05118 8.60999 6.19983C8.60999 7.27669 7.67672 8.20997 6.59986 8.20997Z" fill="#2C3058"/>
<path d="M9.75864 3.75895C10.1551 3.75895 10.4766 3.43753 10.4766 3.04105C10.4766 2.64456 10.1551 2.32314 9.75864 2.32314C9.36216 2.32314 9.04074 2.64456 9.04074 3.04105C9.04074 3.43753 9.36216 3.75895 9.75864 3.75895Z" fill="#2C3058"/>
</svg>
