<svg width="13" height="13" viewBox="0 0 13 13" fill="none" xmlns="http://www.w3.org/2000/svg">
<g clip-path="url(#clip0_146_99)">
<path d="M12.197 12.2003L12.2 12.1998V7.7988C12.2 5.6458 11.7365 3.9873 9.21946 3.9873C8.00946 3.9873 7.19746 4.6513 6.86596 5.2808H6.83096V4.1883H4.44446V12.1998H6.92946V8.23281C6.92946 7.18831 7.12746 6.1783 8.42096 6.1783C9.69546 6.1783 9.71446 7.3703 9.71446 8.2998V12.2003H12.197Z" fill="#2C3058"/>
<path d="M0.397949 4.18848H2.88595V12.2H0.397949V4.18848Z" fill="#2C3058"/>
<path d="M1.64095 0.200195C0.845451 0.200195 0.199951 0.845695 0.199951 1.6412C0.199951 2.4367 0.845451 3.0957 1.64095 3.0957C2.43645 3.0957 3.08195 2.4367 3.08195 1.6412C3.08145 0.845695 2.43595 0.200195 1.64095 0.200195Z" fill="#2C3058"/>
</g>
<defs>
<clipPath id="clip0_146_99">
<rect width="12" height="12" fill="white" transform="translate(0.199951 0.200195)"/>
</clipPath>
</defs>
</svg>
