<svg width="135" height="89" viewBox="0 0 135 89" fill="none" xmlns="http://www.w3.org/2000/svg">
<g clip-path="url(#clip0_62_730)">
<path d="M27.3198 87.2687C25.8879 86.6846 24.4352 85.7355 22.9407 84.4109C19.962 86.8098 16.1786 87.9988 11.6114 87.9988C9.24939 87.9988 7.19048 87.6025 5.43465 86.8098C3.67883 86.0171 2.34105 84.9219 1.40043 83.5139C0.459812 82.1162 -0.010498 80.4892 -0.010498 78.643C-0.010498 76.4423 0.606131 74.4501 1.83939 72.677C3.07265 70.9039 4.92254 69.4958 7.3786 68.4528C6.20805 67.1908 5.33014 65.9496 4.73441 64.7188C4.12823 63.4881 3.8356 62.1009 3.8356 60.5468C3.8356 58.8676 4.20139 57.3448 4.95389 55.9889C5.69594 54.6329 6.83513 53.5586 8.36103 52.7868C9.88692 52.015 11.7473 51.6187 13.9525 51.6187C15.8651 51.6187 17.5687 51.9837 19.0528 52.7138C20.5473 53.4335 21.6969 54.4452 22.533 55.7177C23.3587 56.9901 23.7663 58.4399 23.7663 60.0566C23.7663 61.9966 23.2124 63.728 22.115 65.2508C21.0176 66.7736 19.3245 68.2546 17.0565 69.7149C16.858 69.8087 17.2238 70.4241 18.1539 71.561C19.0737 72.6979 20.0874 73.7722 21.1953 74.8152C22.2927 75.8478 22.972 76.338 23.2333 76.2754C23.5573 76.1815 23.944 75.6809 24.4038 74.7735C24.8637 73.866 25.1877 72.7813 25.3967 71.5193C25.6057 70.2572 25.543 68.9952 25.1772 67.7331C25.0518 67.2429 25.2086 66.857 25.6685 66.565C26.1283 66.2729 26.7658 66.1269 27.6124 66.1269C28.5217 66.1269 29.2951 66.2208 29.9431 66.419C30.591 66.6171 30.9986 66.93 31.1554 67.389C31.5108 68.4215 31.6362 69.694 31.5212 71.1959C31.4062 72.7083 31.03 74.2624 30.4029 75.879C29.7654 77.4957 28.8979 78.9351 27.8005 80.1971C28.4799 80.9689 29.2637 81.5739 30.1521 81.9911C31.0404 82.4083 32.1587 82.7525 33.4861 83.0132C33.9982 83.1071 34.249 83.5869 34.2177 84.4422C34.1863 85.2974 33.925 86.1318 33.4442 86.9349C32.953 87.7381 32.42 88.1448 31.8452 88.1448C30.2566 88.1448 28.7516 87.8528 27.3198 87.2687ZM15.7501 81.6365C16.7848 81.2818 17.6941 80.7916 18.4779 80.1763C16.8266 78.6535 15.5516 77.4331 14.6632 76.5153C13.7748 75.5974 12.6461 74.2937 11.277 72.6144C11.1515 72.4476 10.7544 72.6144 10.0855 73.0734C9.41661 73.5427 8.81044 74.1789 8.25651 75.0133C7.70259 75.8373 7.43086 76.7343 7.43086 77.7043C7.43086 79.0602 7.89072 80.145 8.82089 80.9585C9.7406 81.7616 11.0052 82.1684 12.5834 82.1684C13.6494 82.1684 14.705 81.9911 15.7397 81.6365M16.3145 62.9875C17.0043 62.0592 17.3596 61.0475 17.3596 59.9523C17.3596 59.1492 17.0147 58.4608 16.3145 57.9184C15.6143 57.3656 14.7468 57.0945 13.7121 57.0945C12.7401 57.0945 11.9249 57.3865 11.2561 57.9706C10.5872 58.5547 10.2527 59.2952 10.2527 60.2026C10.2527 61.2039 10.514 62.1218 11.0261 62.9457C11.5382 63.7801 12.2594 64.625 13.1686 65.4907C14.5587 64.7397 15.6038 63.9157 16.304 62.9979" fill="white"/>
<path d="M38.231 59.9939C39.7256 57.1047 41.8786 54.8623 44.6691 53.256C47.4596 51.6602 50.7413 50.8467 54.5142 50.8467C57.7646 50.8467 60.6701 51.4516 63.2202 52.6719C65.7808 53.8923 67.8606 55.6028 69.4701 57.8244C71.0796 60.046 72.1457 62.6327 72.6682 65.5948H60.2834C59.719 64.3641 58.9143 63.4045 57.8691 62.7161C56.824 62.0277 55.6325 61.6835 54.2948 61.6835C52.3195 61.6835 50.7518 62.4241 49.6126 63.9052C48.4629 65.3862 47.8881 67.3784 47.8881 69.8816C47.8881 72.3848 48.4629 74.3665 49.6126 75.8476C50.7622 77.3287 52.3195 78.0692 54.2948 78.0692C55.6325 78.0692 56.824 77.725 57.8691 77.0366C58.9143 76.3483 59.7086 75.3887 60.2834 74.1579H72.6682C72.1457 77.1201 71.0692 79.7068 69.4701 81.9284C67.8606 84.15 65.7808 85.8709 63.2202 87.0808C60.6596 88.2907 57.7542 88.8957 54.5142 88.8957C50.7413 88.8957 47.4491 88.0925 44.6691 86.4863C41.8786 84.8905 39.736 82.6376 38.231 79.7485C36.7261 76.8593 35.984 73.5634 35.984 69.8607C35.984 66.1581 36.7365 62.8726 38.231 59.9834" fill="white"/>
<path d="M80.4858 85.8603C77.5698 83.7639 75.9917 80.687 75.7408 76.6401H88.2407C88.4183 78.7887 89.3694 79.863 91.1043 79.863C91.7418 79.863 92.2749 79.717 92.7243 79.4145C93.1632 79.1121 93.3827 78.6532 93.3827 78.0169C93.3827 77.1304 92.902 76.4211 91.9509 75.8787C90.9998 75.3364 89.5157 74.7106 87.4986 74.0013C85.0948 73.1565 83.109 72.3325 81.5413 71.519C79.9736 70.7054 78.615 69.5268 77.4862 67.9727C76.3575 66.4291 75.814 64.4369 75.8454 62.0067C75.8454 59.5765 76.4724 57.5009 77.7266 55.8008C78.9808 54.0903 80.6948 52.7969 82.8687 51.9208C85.0425 51.0343 87.4882 50.5962 90.2055 50.5962C94.7936 50.5962 98.4412 51.6496 101.138 53.7669C103.845 55.8738 105.266 58.8568 105.402 62.6951H92.7452C92.7138 61.6417 92.4421 60.8803 91.9509 60.4213C91.4597 59.9624 90.8535 59.733 90.1532 59.733C89.662 59.733 89.2544 59.8998 88.9409 60.2336C88.6169 60.5674 88.4601 61.0367 88.4601 61.6312C88.4601 62.4761 88.9304 63.1749 89.8606 63.7173C90.7908 64.2596 92.2853 64.9271 94.3338 65.699C96.6958 66.5855 98.6502 67.4199 100.187 68.2335C101.723 69.047 103.061 70.1735 104.189 71.6128C105.318 73.0626 105.883 74.8775 105.883 77.0573C105.883 79.352 105.318 81.3963 104.189 83.2111C103.061 85.0259 101.42 86.4444 99.2668 87.4666C97.1138 88.4887 94.5533 88.9998 91.5851 88.9998C87.1015 88.9998 83.4017 87.9464 80.4962 85.8603" fill="white"/>
<path d="M121.758 60.578V65.1672H133.411V73.9911H121.758V79.2791H135V88.6349H110V51.2222H135V60.578H121.758Z" fill="white"/>
<path d="M29.5773 23.2279C29.1175 22.4874 28.4695 21.9137 27.6125 21.5069C26.7659 21.1002 25.7417 20.902 24.5398 20.902C22.2823 20.902 20.5369 21.6321 19.2932 23.0923C18.06 24.5525 17.4433 26.5551 17.4433 29.0896C17.4433 32.01 18.1331 34.2004 19.5023 35.6397C20.8818 37.0895 22.993 37.8092 25.8567 37.8092C28.7203 37.8092 30.7688 36.714 32.4201 34.5341H23.0453V26.2318H42.1608V37.9656C40.5408 40.7505 38.2938 43.139 35.4406 45.1311C32.5769 47.1232 28.9607 48.1141 24.5816 48.1141C20.6937 48.1141 17.3179 47.311 14.4438 45.7048C11.5697 44.0985 9.36445 41.856 7.8281 38.9669C6.29176 36.0778 5.52881 32.7819 5.52881 29.0896C5.52881 25.3974 6.30221 22.091 7.8281 19.2019C9.36445 16.3127 11.5592 14.0703 14.4229 12.464C17.2866 10.8578 20.6415 10.0547 24.4771 10.0547C29.3892 10.0547 33.3816 11.2333 36.4752 13.6009C39.5584 15.9581 41.3874 19.1706 41.9517 23.2175H29.5564L29.5773 23.2279Z" fill="white"/>
<path d="M96.0478 10.4404V19.7441H81.3323V24.9174H91.9196V33.7413H81.3323V47.8532H69.5746V10.4404H96.0478Z" fill="white"/>
<path d="M129.461 10.4404V19.7441H119.501V47.8532H107.753V19.7441H97.9082V10.4404H129.461Z" fill="white"/>
<path d="M53.1346 10.1797H51.452C48.2748 10.1797 45.7037 12.7455 45.7037 15.9162V26.8783H53.1346V10.1797Z" fill="white"/>
<path d="M64.9864 26.8783V15.9162C64.9864 12.7455 62.4154 10.1797 59.2382 10.1797H57.5555V26.8887H64.9969L64.9864 26.8783Z" fill="white"/>
<path d="M45.7037 31.29V42.2521C45.7037 45.4228 48.2748 47.9886 51.452 47.9886H53.1346V31.29H45.7037Z" fill="white"/>
<path d="M57.5555 47.9886H59.2382C62.4154 47.9886 64.9969 45.4228 64.9969 42.2521V31.29H57.5555V47.9886Z" fill="white"/>
<path d="M64.4325 3.35825C64.2757 2.20051 63.2933 0.907182 62.2377 0.416967C61.1508 -0.0836774 59.9907 0.229226 59.0501 0.896752C57.1688 2.22137 55.8833 4.42212 54.8486 6.43513C54.765 6.60201 54.6814 6.76889 54.6082 6.93578C54.5351 7.0818 54.5142 7.23825 54.5246 7.37384C54.5246 7.79104 54.765 8.20825 55.2771 8.22911C55.4025 8.24997 55.528 8.24997 55.6429 8.22911C58.6843 8.11438 64.9969 7.44685 64.4325 3.35825ZM59.5308 5.95535C58.6424 6.17438 57.7332 6.3204 56.8135 6.41427C57.3256 5.49642 57.9004 4.60987 58.5484 3.79632C59.1128 3.08707 59.8235 2.26309 60.7118 1.96062C61.6106 1.65815 62.2377 2.54471 62.614 3.29567C63.4187 4.92277 60.7745 5.65287 59.5308 5.95535Z" fill="white"/>
<path d="M64.4325 3.35825C64.2757 2.20051 63.2933 0.907182 62.2377 0.416967C61.1508 -0.0836773 59.9907 0.229226 59.0501 0.896752C57.1688 2.22137 55.8833 4.42212 54.8486 6.43513C54.765 6.60201 54.6814 6.76889 54.6082 6.93578C54.5351 7.0818 54.5142 7.23825 54.5246 7.37384C54.5246 7.79104 54.765 8.20825 55.2771 8.22911C55.4025 8.24997 55.528 8.24997 55.6429 8.22911C58.6843 8.11438 64.9969 7.44685 64.4325 3.35825ZM59.5308 5.95535C58.6424 6.17438 57.7332 6.3204 56.8135 6.41427C57.3256 5.49642 57.9004 4.60987 58.5484 3.79632C59.1128 3.08707 59.8235 2.26309 60.7118 1.96062C61.6106 1.65815 62.2377 2.54471 62.614 3.29567C63.4187 4.92277 60.7745 5.65287 59.5308 5.95535Z" stroke="white" stroke-width="0.25" stroke-miterlimit="10"/>
<path d="M56.1028 6.93578C54.7964 4.15095 50.4487 -2.92066 47.1042 1.606C46.4354 2.52385 45.9441 3.73374 46.3935 4.84976C46.7907 5.86148 47.7104 6.50815 48.6719 6.94621C50.6054 7.81191 52.7898 8.08309 54.8905 8.21868C54.9427 8.21868 54.995 8.21868 55.0473 8.21868C55.1727 8.2604 55.3085 8.2604 55.434 8.22911C55.9461 8.19782 56.1969 7.79105 56.1865 7.37385C56.1865 7.22782 56.1656 7.0818 56.1028 6.93578ZM48.6719 4.97492C48.0031 4.53686 47.8358 4.05708 48.0867 3.3374C48.327 2.65944 49.0377 1.76245 49.7798 1.89805C50.7309 2.06493 51.4834 2.98278 52.0686 3.67116C52.7584 4.49514 53.3646 5.43385 53.8976 6.40385C53.0302 6.32041 52.1627 6.17438 51.3161 5.98664C50.386 5.77804 49.4662 5.49643 48.6615 4.97492H48.6719Z" fill="white"/>
<path d="M56.1028 6.93578C54.7964 4.15095 50.4487 -2.92066 47.1042 1.606C46.4354 2.52385 45.9441 3.73374 46.3935 4.84976C46.7907 5.86148 47.7104 6.50815 48.6719 6.94621C50.6054 7.81191 52.7898 8.08309 54.8905 8.21868C54.9427 8.21868 54.995 8.21868 55.0473 8.21868C55.1727 8.2604 55.3085 8.2604 55.434 8.22911C55.9461 8.19782 56.1969 7.79105 56.1865 7.37384C56.1865 7.22782 56.1656 7.0818 56.1028 6.93578ZM48.6719 4.97492C48.0031 4.53686 47.8358 4.05708 48.0867 3.3374C48.327 2.65944 49.0377 1.76245 49.7798 1.89805C50.7309 2.06493 51.4834 2.98278 52.0686 3.67116C52.7584 4.49514 53.3646 5.43385 53.8976 6.40385C53.0302 6.32041 52.1627 6.17438 51.3161 5.98664C50.386 5.77804 49.4662 5.49643 48.6615 4.97492H48.6719Z" stroke="white" stroke-width="0.25" stroke-miterlimit="10"/>
</g>
<defs>
<clipPath id="clip0_62_730">
<rect width="135" height="89" fill="white"/>
</clipPath>
</defs>
</svg>
