<svg width="59" height="59" viewBox="0 0 59 59" fill="none" xmlns="http://www.w3.org/2000/svg">
<g clip-path="url(#clip0_62_393)">
<path d="M55.7524 33.4762C55.7524 30.6357 54.7291 27.9731 52.8533 25.8869C53.1429 23.0968 52.405 20.3426 50.7356 18.046C49.0657 15.7489 46.6727 14.1971 43.9272 13.6122C43.4917 12.8605 42.9782 12.17 42.3969 11.5482L48.171 0H10.8289L16.603 11.5482C16.0219 12.17 15.5084 12.8605 15.0729 13.6122C12.3281 14.1968 9.93463 15.7486 8.26445 18.046C6.59461 20.3429 5.85669 23.0974 6.14669 25.8871C4.27076 27.9739 3.24756 30.6364 3.24756 33.4762C3.24756 36.3166 4.27088 38.9792 6.14669 41.0654C5.85703 43.8555 6.59496 46.6099 8.26445 48.9063C9.93544 51.2048 12.3301 52.7569 15.073 53.3405C16.4781 55.7658 18.692 57.5585 21.3908 58.4352C22.5533 58.8129 23.7426 59.0001 24.9252 59.0001C26.4889 59.0001 28.0406 58.6724 29.5 58.0246C32.0629 59.1623 34.9091 59.3124 37.6092 58.4352C40.308 57.5585 42.522 55.7656 43.9272 53.3403C46.672 52.7557 49.0654 51.2037 50.7356 48.9064C52.4055 46.6094 53.1434 43.8549 52.8534 41.0653C54.7292 38.9784 55.7524 36.3159 55.7524 33.4762ZM42.5759 3.45794L39.6125 9.38495C38.9811 9.03732 38.3121 8.74547 37.6092 8.51713C36.6024 8.19001 35.5751 8.00604 34.5498 7.96259L32.2974 3.45794H42.5759ZM28.4314 3.45794L30.9078 8.41097C30.431 8.55148 29.9606 8.72299 29.4996 8.9277C26.9366 7.78992 24.0906 7.64008 21.3907 8.51724C20.6878 8.74558 20.0188 9.03743 19.3874 9.38507L16.4239 3.45794H28.4314ZM49.8432 39.205L49.1541 39.8607L49.3236 40.7928C49.7166 42.9445 49.2247 45.1037 47.9385 46.8729C46.6524 48.6421 44.7502 49.7761 42.5774 50.0667L41.6392 50.1947L41.2368 51.035C40.2909 53.0097 38.6232 54.4699 36.5407 55.1464C34.4583 55.823 32.2508 55.6217 30.3303 54.5827L29.4875 54.1237L28.6642 54.5856C26.7408 55.6224 24.5376 55.8216 22.4592 55.1464C20.3767 54.4699 18.7089 53.0097 17.7631 51.035L17.3589 50.1911L16.4177 50.0661C14.2497 49.7761 12.3475 48.6421 11.0613 46.8729C9.77522 45.1037 9.28327 42.9445 9.67621 40.7928L9.84588 39.8638L9.15844 39.2067C7.57655 37.6975 6.70538 35.6623 6.70538 33.476C6.70538 31.2902 7.57632 29.2553 9.15752 27.7462L9.84565 27.0915L9.67609 26.1594C9.28316 24.0078 9.77499 21.8484 11.0611 20.0792C12.3472 18.31 14.2496 17.176 16.4222 16.8854L17.3604 16.7574L17.7628 15.9171C18.7087 13.9424 20.3764 12.4822 22.4588 11.8057C24.5412 11.1293 26.7487 11.3305 28.6746 12.3724L29.5151 12.8104L30.3246 12.3724C32.2505 11.3305 34.4582 11.1294 36.5403 11.8059C38.6228 12.4823 40.2906 13.9425 41.2364 15.9172L41.6406 16.7611L42.5818 16.8861C44.7498 17.1761 46.6521 18.3101 47.9383 20.0793C49.2244 21.8485 49.7162 24.0078 49.3233 26.1594L49.1536 27.0884L49.8411 27.7456C51.423 29.2547 52.2941 31.2899 52.2941 33.4762C52.2941 35.6624 51.4233 37.6976 49.8432 39.205Z" fill="#2C3058"/>
<path d="M33.3459 28.792L30.8138 23.6611H28.1862L25.6541 28.792L19.9917 29.6148L19.18 32.1137L23.2771 36.1074L22.3099 41.7467L24.4355 43.2911L29.5 40.6285L34.5645 43.291L36.6902 41.7467L35.7229 36.1073L39.82 32.1136L39.0083 29.6147L33.3459 28.792ZM32.5993 38.3513L29.5 36.7219L26.4006 38.3513L26.9925 34.9001L24.4852 32.456L27.9504 31.9525L29.5 28.8125L31.0496 31.9525L34.5148 32.456L32.0074 34.9001L32.5993 38.3513Z" fill="#2C3058"/>
<path d="M29.5 15.8735C19.7939 15.8735 11.8975 23.77 11.8975 33.476C11.8975 43.1821 19.7939 51.0785 29.5 51.0785C39.2061 51.0785 47.1025 43.1821 47.1025 33.476C47.1025 23.77 39.2061 15.8735 29.5 15.8735ZM29.5 47.6207C21.7006 47.6207 15.3554 41.2755 15.3554 33.4762C15.3554 25.6768 21.7006 19.3316 29.5 19.3316C37.2993 19.3316 43.6445 25.6768 43.6445 33.4762C43.6445 41.2755 37.2993 47.6207 29.5 47.6207Z" fill="#2C3058"/>
</g>
<defs>
<clipPath id="clip0_62_393">
<rect width="59" height="59" fill="white"/>
</clipPath>
</defs>
</svg>
