<svg width="30" height="31" viewBox="0 0 30 31" fill="none" xmlns="http://www.w3.org/2000/svg">
<path fill-rule="evenodd" clip-rule="evenodd" d="M15 1.93555C9.83428 1.93661 5.62316 6.28679 5.62317 11.6249C5.62317 15.4307 7.84669 19.6059 9.99755 22.9396C11.248 24.8564 12.533 26.5911 13.9288 28.2961C14.3186 28.7318 14.5353 29.0643 15 29.0643C15.4647 29.0643 15.6814 28.7318 16.0712 28.2961C17.467 26.5911 18.752 24.8564 20.0024 22.9396C22.1533 19.6059 24.3768 15.4307 24.3768 11.6249C24.3768 6.28679 20.1657 1.93658 15 1.93555ZM15 3.87305C19.1524 3.87411 22.5 7.3339 22.5 11.6249C22.5 14.6004 20.5066 18.6617 18.4387 21.8668C17.5166 23.2893 16.042 25.1891 15 26.5573C13.958 25.1891 12.4834 23.2893 11.5613 21.8668C9.49339 18.6617 7.5 14.6004 7.5 11.6249C7.5 7.3339 10.8476 3.87407 15 3.87305ZM15.0019 6.78497C12.4241 6.78497 10.3089 8.96128 10.3089 11.6249C10.3089 14.2886 12.4241 16.4744 15.0019 16.4744C17.5796 16.4744 19.6857 14.2886 19.6857 11.6249C19.6857 8.96128 17.5796 6.78497 15.0019 6.78497ZM15.0019 8.72247C16.5663 8.72247 17.8107 10.0084 17.8107 11.6249C17.8107 13.2415 16.5663 14.5369 15.0019 14.5369C13.4375 14.5369 12.1839 13.2415 12.1839 11.6249C12.1839 10.0084 13.4375 8.72247 15.0019 8.72247Z" fill="white"/>
</svg>
