<svg width="30" height="30" viewBox="0 0 30 30" fill="none" xmlns="http://www.w3.org/2000/svg">
<path fill-rule="evenodd" clip-rule="evenodd" d="M12.551 0.999975H8.99804C7.93802 0.999975 6.92102 1.42094 6.17104 2.17099C5.661 2.68096 5.30404 3.31399 5.12703 3.99996H5.00003C2.79104 3.99996 1 5.79094 1 7.99999V26C1 28.209 2.79097 30 5.00003 30H25C27.209 30 29 28.209 29 26V7.99999C29 5.791 27.2091 3.99996 25 3.99996H24.874C24.697 3.31399 24.339 2.67996 23.829 2.17099C23.079 1.42101 22.062 0.999975 21.002 0.999975H17.448C16.8171 0.381021 15.953 0 15 0C14.047 0 13.182 0.382026 12.551 0.999975ZM17.449 5.99903C16.818 6.61805 15.953 7.00001 15 7.00001C14.047 7.00001 13.183 6.61899 12.552 6.00004H5.00003C3.89503 6.00004 3.00001 6.89505 3.00001 8.00005V26C3.00001 27.105 3.89503 28 5.00003 28H25C26.105 28 27 27.105 27 26V7.99999C27 6.89499 26.105 5.99998 25 5.99998C22.6 5.99998 20.893 5.99998 17.449 5.99903ZM22 20C20.344 20 19 21.344 19 23C19 24.656 20.344 26 22 26C23.656 26 25 24.656 25 23C25 21.344 23.656 20 22 20ZM8.00001 20C6.34402 20 5.00003 21.344 5.00003 23C5.00003 24.656 6.34402 26 8.00001 26C9.656 26 11 24.656 11 23C11 21.344 9.65606 20 8.00001 20ZM22 22C22.552 22 23 22.448 23 23C23 23.552 22.552 24 22 24C21.448 24 21.0001 23.552 21.0001 23C21.0001 22.448 21.448 22 22 22ZM8.00001 22C8.55201 22 8.99999 22.448 8.99999 23C8.99999 23.552 8.55201 24 8.00001 24C7.44802 24 7.00004 23.552 7.00004 23C7.00004 22.448 7.44802 22 8.00001 22ZM25 7.99999H5.00003C4.44803 7.99999 4.00005 8.44797 4.00005 8.99996V17C4.00005 17.5519 4.44803 17.9999 5.00003 17.9999H25C25.552 17.9999 26 17.5519 26 17V9.00002C26.0001 8.44803 25.552 7.99999 25 7.99999ZM14.0001 10V16H6V10H14.0001ZM16.0001 10H24V16H16.0001V10ZM15 2.00001C15.828 2.00001 16.5001 2.67198 16.5001 3.50004C16.5001 4.32809 15.8281 5.00006 15 5.00006C14.172 5.00006 13.5 4.32809 13.5 3.50004C13.5 2.67198 14.172 2.00001 15 2.00001ZM11.535 2.99999H8.99804C8.46803 2.99999 7.96006 3.21097 7.58507 3.58496C7.46008 3.70996 7.35405 3.84997 7.26705 3.99996H11.536C11.512 3.83696 11.5001 3.66995 11.5001 3.49997C11.5001 3.33 11.512 3.16399 11.535 2.99999ZM18.4641 2.99999C18.4881 3.16299 18.5001 3.33 18.5001 3.49997C18.5001 3.66995 18.4881 3.83596 18.4651 3.99996H22.7331C22.6461 3.84896 22.54 3.70996 22.415 3.58496C22.04 3.20997 21.532 2.99999 21.0021 2.99999H18.4641Z" fill="white"/>
</svg>
