<svg width="1397" height="926" viewBox="0 0 1397 926" fill="none" xmlns="http://www.w3.org/2000/svg">
<path d="M372.469 925.796C371.201 925.796 370.163 924.758 370.163 923.476C370.163 922.193 371.201 921.169 372.483 921.169C373.766 921.169 374.804 922.207 374.804 923.49C374.804 924.758 373.752 925.796 372.483 925.796H372.469ZM401.57 922.02C401.426 920.751 402.348 919.613 403.617 919.469C404.885 919.325 406.038 920.232 406.168 921.515C406.312 922.784 405.389 923.937 404.121 924.081C404.035 924.081 403.948 924.095 403.876 924.095C402.694 924.095 401.7 923.216 401.57 922.02ZM340.817 923.865C339.549 923.721 338.641 922.553 338.799 921.285C338.943 920.016 340.096 919.108 341.379 919.267C342.648 919.425 343.556 920.578 343.397 921.847C343.253 923.029 342.258 923.894 341.091 923.894C341.004 923.894 340.903 923.893 340.817 923.865ZM432.631 917.177C432.357 915.937 433.15 914.698 434.404 914.424C435.658 914.15 436.883 914.957 437.157 916.211C437.431 917.451 436.638 918.69 435.384 918.964C435.225 918.993 435.052 919.022 434.894 919.022C433.827 919.022 432.862 918.272 432.631 917.177ZM309.612 918.114C308.372 917.811 307.623 916.557 307.925 915.303C308.228 914.064 309.496 913.314 310.736 913.617C311.976 913.934 312.739 915.188 312.422 916.427C312.163 917.48 311.212 918.186 310.174 918.186C309.986 918.186 309.799 918.157 309.612 918.114ZM463.058 909.278C462.669 908.053 463.346 906.756 464.557 906.367C465.782 905.978 467.094 906.655 467.468 907.866C467.858 909.091 467.18 910.388 465.969 910.777C465.739 910.864 465.494 910.893 465.263 910.893C464.283 910.893 463.375 910.258 463.058 909.278ZM279.387 908.442C278.205 907.981 277.614 906.626 278.075 905.43C278.551 904.248 279.891 903.657 281.087 904.118C282.284 904.594 282.86 905.934 282.399 907.131C282.039 908.039 281.16 908.601 280.237 908.601C279.963 908.601 279.675 908.543 279.387 908.442ZM492.634 898.627C492.144 897.445 492.706 896.076 493.888 895.586C495.07 895.095 496.425 895.658 496.915 896.839C497.405 898.021 496.858 899.376 495.676 899.866C495.373 899.996 495.085 900.054 494.782 900.054C493.874 900.054 493.009 899.52 492.634 898.627ZM250.617 895.153C249.479 894.548 249.046 893.149 249.652 892.011C250.257 890.887 251.655 890.454 252.794 891.06C253.918 891.651 254.35 893.063 253.745 894.187C253.327 894.98 252.534 895.427 251.698 895.427C251.338 895.427 250.963 895.34 250.617 895.153ZM521.231 885.525C520.64 884.386 521.087 882.988 522.225 882.397C523.364 881.806 524.762 882.267 525.353 883.406C525.944 884.545 525.483 885.943 524.359 886.519C524.013 886.707 523.652 886.779 523.292 886.779C522.456 886.779 521.634 886.318 521.231 885.525ZM223.448 878.837C222.381 878.131 222.107 876.689 222.814 875.623C223.52 874.556 224.961 874.268 226.028 874.988C227.094 875.695 227.383 877.136 226.662 878.203C226.215 878.866 225.48 879.226 224.731 879.226C224.298 879.226 223.851 879.111 223.448 878.837ZM548.717 870.247C548.054 869.151 548.386 867.724 549.481 867.061C550.577 866.384 552.004 866.73 552.667 867.825C553.344 868.906 552.998 870.333 551.903 871.01C551.528 871.241 551.11 871.356 550.706 871.356C549.914 871.356 549.164 870.953 548.717 870.247ZM197.95 860.099C196.941 859.307 196.783 857.836 197.576 856.842C198.383 855.833 199.839 855.674 200.833 856.482C201.842 857.274 202.001 858.745 201.208 859.739C200.747 860.316 200.069 860.604 199.392 860.604C198.887 860.604 198.368 860.445 197.95 860.099ZM575.036 852.993C574.287 851.956 574.532 850.514 575.57 849.765C576.607 849.015 578.063 849.26 578.798 850.298C579.548 851.35 579.303 852.792 578.265 853.541C577.861 853.83 577.386 853.974 576.925 853.974C576.204 853.974 575.483 853.628 575.036 852.993ZM173.995 839.445C173.058 838.58 173.001 837.11 173.865 836.173C174.73 835.236 176.2 835.179 177.137 836.043C178.074 836.908 178.132 838.378 177.267 839.315C176.82 839.82 176.186 840.065 175.566 840.065C175.004 840.065 174.442 839.863 173.995 839.445ZM600.087 833.968C599.28 832.988 599.424 831.517 600.419 830.71C601.399 829.903 602.854 830.033 603.676 831.027C604.483 832.022 604.353 833.478 603.359 834.299C602.926 834.645 602.408 834.818 601.889 834.818C601.211 834.818 600.548 834.53 600.087 833.968ZM151.452 817.306C150.559 816.383 150.588 814.913 151.524 814.034C152.447 813.14 153.903 813.169 154.796 814.091C155.69 815.014 155.661 816.484 154.739 817.378C154.277 817.81 153.701 818.026 153.124 818.026C152.519 818.026 151.914 817.781 151.452 817.306ZM623.826 813.313C622.947 812.376 622.99 810.906 623.927 810.027C624.864 809.148 626.334 809.191 627.213 810.128C628.078 811.065 628.035 812.535 627.098 813.414C626.651 813.832 626.089 814.034 625.512 814.034C624.907 814.034 624.287 813.789 623.826 813.313ZM130.149 793.999C129.313 793.019 129.429 791.563 130.394 790.727C131.36 789.891 132.83 789.992 133.666 790.958C134.502 791.938 134.387 793.394 133.421 794.244C132.989 794.619 132.441 794.792 131.908 794.792C131.259 794.792 130.61 794.532 130.149 793.999ZM646.153 791.16C645.216 790.28 645.187 788.81 646.066 787.873C646.945 786.951 648.416 786.908 649.338 787.787C650.275 788.666 650.318 790.136 649.424 791.073C648.978 791.549 648.358 791.794 647.752 791.794C647.176 791.794 646.599 791.578 646.153 791.16ZM110.273 769.439C109.495 768.415 109.697 766.959 110.72 766.181C111.743 765.403 113.199 765.604 113.977 766.628C114.741 767.651 114.539 769.107 113.516 769.885C113.098 770.202 112.608 770.346 112.118 770.346C111.426 770.346 110.734 770.029 110.273 769.439ZM667.499 768.04C666.533 767.19 666.461 765.72 667.326 764.768C668.176 763.817 669.647 763.745 670.598 764.596C671.549 765.46 671.621 766.916 670.771 767.867C670.31 768.386 669.675 768.631 669.041 768.631C668.494 768.631 667.931 768.444 667.499 768.04ZM688.557 744.676C687.62 743.811 687.548 742.356 688.413 741.404C689.278 740.453 690.748 740.381 691.685 741.246C692.636 742.111 692.708 743.581 691.843 744.532C691.382 745.036 690.748 745.281 690.128 745.281C689.566 745.281 689.004 745.08 688.557 744.676ZM91.9823 743.667C91.2761 742.601 91.5643 741.159 92.6309 740.453C93.6975 739.747 95.1389 740.035 95.8451 741.102C96.5514 742.168 96.2631 743.61 95.1965 744.316C94.8074 744.575 94.3605 744.705 93.9137 744.705C93.1642 744.705 92.4291 744.345 91.9823 743.667ZM710.048 721.701C709.14 720.793 709.111 719.337 710.019 718.415C710.912 717.507 712.383 717.492 713.291 718.386C714.213 719.279 714.228 720.735 713.334 721.658C712.873 722.119 712.267 722.35 711.676 722.35C711.085 722.35 710.494 722.133 710.048 721.701ZM75.3059 716.829C74.6717 715.719 75.0465 714.307 76.1563 713.658C77.2661 713.024 78.6787 713.399 79.3273 714.509C79.9615 715.618 79.5867 717.031 78.4769 717.68C78.1165 717.881 77.713 717.982 77.3238 717.982C76.5166 717.982 75.7383 717.579 75.3059 716.829ZM1336.43 703.857C1336.4 702.574 1337.42 701.522 1338.71 701.508C1339.99 701.508 1341.04 702.517 1341.06 703.799C1341.06 705.082 1340.05 706.134 1338.78 706.149H1338.74C1337.47 706.149 1336.44 705.125 1336.43 703.857ZM1307.2 705.774C1305.92 705.731 1304.92 704.664 1304.96 703.381C1305.01 702.099 1306.09 701.104 1307.37 701.147C1308.65 701.191 1309.65 702.272 1309.61 703.554C1309.56 704.794 1308.52 705.789 1307.29 705.789C1307.29 705.789 1307.23 705.789 1307.2 705.774ZM1367.87 702.805C1367.78 701.522 1368.76 700.412 1370.04 700.34C1371.31 700.254 1372.41 701.234 1372.49 702.517C1372.58 703.785 1371.6 704.88 1370.32 704.967H1370.17C1368.96 704.967 1367.94 704.03 1367.87 702.805ZM1275.69 703.857C1274.41 703.756 1273.47 702.632 1273.57 701.349C1273.69 700.081 1274.81 699.129 1276.08 699.245C1277.36 699.346 1278.3 700.47 1278.2 701.753C1278.1 702.949 1277.07 703.872 1275.89 703.872C1275.89 703.872 1275.76 703.872 1275.69 703.857ZM1399.21 700.196C1399.07 698.928 1399.99 697.775 1401.26 697.645C1402.53 697.501 1403.68 698.409 1403.83 699.692C1403.97 700.96 1403.05 702.099 1401.78 702.243C1401.69 702.257 1401.61 702.257 1401.52 702.257C1400.35 702.257 1399.34 701.378 1399.21 700.196ZM732.605 699.764C731.74 698.812 731.826 697.342 732.778 696.492C733.729 695.641 735.199 695.713 736.05 696.665C736.914 697.616 736.828 699.086 735.877 699.951C735.43 700.34 734.882 700.542 734.334 700.542C733.7 700.542 733.066 700.283 732.605 699.764ZM1244.31 700.383C1243.04 700.211 1242.15 699.043 1242.32 697.775C1242.5 696.506 1243.66 695.613 1244.93 695.786C1246.2 695.959 1247.09 697.126 1246.92 698.394C1246.76 699.562 1245.77 700.412 1244.62 700.412C1244.51 700.412 1244.41 700.412 1244.31 700.383ZM1430.41 696.059C1430.2 694.805 1431.05 693.609 1432.32 693.407C1433.59 693.206 1434.77 694.07 1434.99 695.324C1435.18 696.593 1434.33 697.789 1433.06 697.991C1432.94 697.991 1432.81 698.02 1432.7 698.02C1431.57 698.02 1430.58 697.212 1430.41 696.059ZM1213.14 695.353C1211.88 695.108 1211.05 693.897 1211.28 692.643C1211.52 691.389 1212.73 690.553 1213.99 690.798C1215.26 691.029 1216.08 692.24 1215.85 693.494C1215.63 694.618 1214.66 695.396 1213.57 695.396C1213.42 695.396 1213.28 695.396 1213.14 695.353ZM1461.32 690.308C1461.05 689.069 1461.83 687.815 1463.08 687.541C1464.32 687.253 1465.56 688.031 1465.85 689.285C1466.14 690.539 1465.36 691.779 1464.1 692.067C1463.93 692.096 1463.76 692.124 1463.59 692.124C1462.53 692.124 1461.57 691.389 1461.32 690.308ZM60.287 689.04C59.7105 687.887 60.1717 686.503 61.3104 685.927C62.4635 685.35 63.8472 685.811 64.4237 686.95C65.0002 688.103 64.539 689.501 63.4003 690.063C63.0688 690.236 62.7085 690.323 62.3626 690.323C61.5122 690.323 60.6906 689.847 60.287 689.04ZM1182.26 688.838C1181.01 688.55 1180.23 687.31 1180.52 686.056C1180.81 684.817 1182.06 684.039 1183.3 684.327C1184.55 684.615 1185.33 685.855 1185.04 687.109C1184.8 688.175 1183.83 688.896 1182.78 688.896C1182.61 688.896 1182.44 688.896 1182.26 688.838ZM1491.69 682.136C1491.29 680.911 1491.94 679.599 1493.15 679.196C1494.37 678.778 1495.68 679.426 1496.09 680.651C1496.51 681.862 1495.84 683.174 1494.63 683.592C1494.39 683.664 1494.14 683.707 1493.9 683.707C1492.93 683.707 1492.02 683.102 1491.69 682.136ZM1151.66 681.257C1150.42 680.925 1149.67 679.657 1150.01 678.432C1150.32 677.192 1151.59 676.443 1152.83 676.774C1154.07 677.091 1154.82 678.36 1154.49 679.599C1154.21 680.637 1153.28 681.329 1152.24 681.329C1152.05 681.329 1151.85 681.3 1151.66 681.257ZM756.791 679.671C756.027 678.633 756.243 677.192 757.281 676.428C758.304 675.664 759.76 675.88 760.524 676.918C761.288 677.942 761.057 679.397 760.034 680.161C759.616 680.464 759.14 680.608 758.664 680.608C757.944 680.608 757.252 680.291 756.791 679.671ZM1121.26 673.027C1120.03 672.681 1119.3 671.412 1119.65 670.173C1119.98 668.948 1121.26 668.227 1122.49 668.558C1123.73 668.904 1124.45 670.173 1124.12 671.412C1123.83 672.436 1122.89 673.113 1121.88 673.113C1121.67 673.113 1121.47 673.084 1121.26 673.027ZM1520.84 670.346C1520.26 669.207 1520.71 667.809 1521.84 667.218C1522.98 666.627 1524.38 667.088 1524.97 668.227C1525.55 669.366 1525.1 670.764 1523.96 671.355C1523.62 671.513 1523.26 671.6 1522.91 671.6C1522.06 671.6 1521.25 671.138 1520.84 670.346ZM1090.95 664.58C1089.71 664.249 1088.99 662.966 1089.34 661.726C1089.68 660.501 1090.95 659.781 1092.19 660.112C1093.43 660.458 1094.15 661.741 1093.81 662.966C1093.52 664.004 1092.58 664.667 1091.57 664.667C1091.37 664.667 1091.15 664.638 1090.95 664.58ZM783.023 662.346C782.418 661.222 782.821 659.824 783.946 659.204C785.07 658.584 786.482 658.988 787.102 660.112C787.707 661.236 787.304 662.649 786.18 663.269C785.819 663.456 785.445 663.557 785.07 663.557C784.248 663.557 783.456 663.125 783.023 662.346ZM46.9257 660.415C46.4212 659.233 46.9545 657.864 48.1365 657.359C49.3039 656.855 50.6732 657.388 51.1777 658.57C51.6966 659.752 51.1489 661.107 49.967 661.626C49.6787 661.755 49.3616 661.813 49.0589 661.813C48.1653 661.813 47.3005 661.28 46.9257 660.415ZM1060.61 656.35C1059.37 656.033 1058.64 654.765 1058.97 653.525C1059.29 652.286 1060.56 651.536 1061.79 651.868C1063.03 652.199 1063.77 653.467 1063.45 654.707C1063.18 655.745 1062.23 656.437 1061.2 656.437C1061.02 656.437 1060.81 656.408 1060.61 656.35ZM1547.59 653.871C1546.79 652.862 1546.98 651.406 1547.99 650.614C1548.99 649.821 1550.46 649.994 1551.23 651.003C1552.03 652.012 1551.85 653.467 1550.84 654.26C1550.43 654.592 1549.92 654.75 1549.42 654.75C1548.73 654.75 1548.05 654.448 1547.59 653.871ZM811.475 648.956C811.014 647.76 811.634 646.434 812.83 645.972C814.027 645.526 815.367 646.131 815.814 647.342C816.261 648.538 815.655 649.878 814.459 650.325C814.185 650.426 813.911 650.47 813.637 650.47C812.701 650.47 811.821 649.893 811.475 648.956ZM1030.16 648.769C1028.9 648.466 1028.12 647.227 1028.43 645.972C1028.72 644.733 1029.96 643.955 1031.21 644.243C1032.45 644.546 1033.23 645.785 1032.94 647.025C1032.69 648.106 1031.73 648.826 1030.68 648.826C1030.5 648.826 1030.33 648.798 1030.16 648.769ZM999.485 642.254C998.217 642.009 997.395 640.798 997.626 639.544C997.871 638.29 999.081 637.454 1000.35 637.699C1001.62 637.93 1002.44 639.14 1002.21 640.409C1001.99 641.519 1001.03 642.297 999.932 642.297C999.788 642.297 999.644 642.297 999.5 642.254H999.485ZM841.484 639.602C841.196 638.362 841.96 637.108 843.214 636.82C844.453 636.517 845.707 637.295 845.996 638.549C846.284 639.789 845.506 641.043 844.266 641.331C844.093 641.375 843.92 641.389 843.733 641.389C842.681 641.389 841.729 640.668 841.484 639.602ZM968.554 637.296C967.285 637.137 966.392 635.97 966.55 634.701C966.709 633.433 967.876 632.539 969.145 632.698C970.413 632.871 971.321 634.024 971.148 635.306C971.004 636.474 970.009 637.324 968.856 637.324C968.755 637.324 968.655 637.31 968.554 637.296ZM872.416 633.937C872.257 632.669 873.165 631.516 874.448 631.357C875.716 631.213 876.869 632.121 877.014 633.389C877.172 634.672 876.264 635.811 874.981 635.97C874.88 635.97 874.794 635.97 874.693 635.97C873.54 635.97 872.531 635.105 872.401 633.923L872.416 633.937ZM937.392 634.37C936.123 634.298 935.143 633.202 935.215 631.919C935.287 630.637 936.383 629.671 937.666 629.743C938.948 629.815 939.914 630.91 939.842 632.193C939.77 633.418 938.747 634.37 937.536 634.37H937.392ZM903.765 631.53C903.736 630.247 904.745 629.181 906.028 629.152C907.311 629.123 908.363 630.146 908.406 631.429C908.435 632.698 907.412 633.764 906.143 633.793H906.086C904.832 633.793 903.794 632.799 903.765 631.53ZM1570.65 632.539C1569.7 631.689 1569.6 630.218 1570.45 629.267C1571.3 628.301 1572.77 628.215 1573.72 629.065C1574.68 629.916 1574.77 631.372 1573.92 632.337C1573.46 632.856 1572.83 633.116 1572.19 633.116C1571.64 633.116 1571.1 632.928 1570.65 632.539ZM35.2364 631.055C34.804 629.858 35.4237 628.518 36.6201 628.085C37.8308 627.638 39.1568 628.258 39.6037 629.469C40.0361 630.665 39.4163 632.006 38.22 632.438C37.9605 632.539 37.6867 632.582 37.4272 632.582C36.4759 632.582 35.5823 631.991 35.2364 631.055ZM1590.09 607.834C1589.04 607.099 1588.77 605.658 1589.49 604.606C1590.21 603.554 1591.65 603.28 1592.7 604C1593.77 604.721 1594.03 606.162 1593.31 607.215C1592.86 607.878 1592.14 608.238 1591.39 608.238C1590.94 608.238 1590.48 608.094 1590.09 607.834ZM25.2478 601.089C24.8731 599.864 25.5649 598.566 26.7901 598.192C28.0152 597.831 29.3124 598.523 29.6872 599.748C30.0619 600.974 29.3557 602.271 28.1305 602.646C27.9143 602.703 27.6837 602.732 27.4675 602.732C26.473 602.732 25.5505 602.098 25.2478 601.089ZM1606.86 581.213C1605.75 580.578 1605.36 579.152 1606.01 578.042C1606.64 576.932 1608.05 576.557 1609.16 577.191C1610.27 577.825 1610.66 579.252 1610.03 580.362C1609.59 581.097 1608.82 581.515 1608.01 581.515C1607.62 581.515 1607.22 581.414 1606.86 581.213ZM16.9456 570.619C16.643 569.365 17.4069 568.111 18.6464 567.808C19.886 567.505 21.14 568.269 21.4426 569.523C21.7453 570.763 20.9814 572.017 19.7418 572.32C19.5545 572.363 19.3671 572.392 19.1941 572.392C18.142 572.392 17.1907 571.671 16.9456 570.619ZM1615.27 566.266C1614.15 565.646 1613.75 564.233 1614.35 563.109C1614.96 561.985 1616.37 561.581 1617.49 562.187C1618.62 562.807 1619.02 564.219 1618.42 565.329C1618 566.107 1617.19 566.54 1616.37 566.54C1615.99 566.54 1615.62 566.453 1615.26 566.266H1615.27ZM10.3298 539.731C10.0992 538.462 10.9352 537.251 12.1892 537.021C13.4432 536.79 14.6539 537.626 14.8845 538.88C15.1295 540.134 14.2936 541.345 13.0252 541.576C12.8954 541.604 12.7513 541.619 12.6072 541.619C11.5117 541.619 10.546 540.84 10.3298 539.731ZM1629.96 538.433C1628.82 537.857 1628.35 536.473 1628.92 535.32C1629.5 534.181 1630.88 533.72 1632.04 534.282C1633.17 534.859 1633.65 536.257 1633.07 537.396C1632.67 538.217 1631.85 538.678 1631 538.678C1630.65 538.678 1630.29 538.606 1629.96 538.433ZM5.42924 508.525C5.25628 507.257 6.16434 506.089 7.41831 505.931C8.70112 505.758 9.85419 506.652 10.0272 507.934C10.1857 509.203 9.29207 510.356 8.02368 510.529C7.92278 510.529 7.82189 510.529 7.721 510.529C6.58233 510.529 5.57338 509.678 5.42924 508.511V508.525ZM1643.48 510.024C1642.3 509.505 1641.78 508.136 1642.3 506.969C1642.82 505.787 1644.19 505.268 1645.37 505.787C1646.54 506.291 1647.07 507.661 1646.55 508.842C1646.16 509.707 1645.31 510.226 1644.42 510.226C1644.11 510.226 1643.8 510.154 1643.49 510.024H1643.48ZM1655.46 480.938C1654.26 480.491 1653.64 479.151 1654.09 477.954C1654.54 476.744 1655.86 476.138 1657.07 476.585C1658.27 477.032 1658.87 478.358 1658.44 479.554C1658.1 480.491 1657.2 481.082 1656.27 481.082C1655.99 481.082 1655.72 481.024 1655.46 480.938ZM2.22946 477.104C2.12856 475.821 3.09426 474.711 4.36265 474.61C5.64545 474.524 6.75529 475.475 6.85619 476.758C6.94267 478.026 5.99137 479.151 4.70857 479.237C4.70857 479.237 4.59327 479.251 4.53561 479.251C3.33929 479.251 2.31594 478.315 2.22946 477.104ZM1665.46 451.102C1664.24 450.756 1663.53 449.459 1663.88 448.234C1664.22 447.009 1665.52 446.288 1666.74 446.648C1667.97 446.994 1668.69 448.277 1668.33 449.516C1668.04 450.525 1667.12 451.188 1666.11 451.188C1665.89 451.188 1665.68 451.16 1665.46 451.102ZM0.744857 445.553C0.71603 444.27 1.73939 443.203 3.02219 443.189C4.30499 443.16 5.35718 444.169 5.38601 445.452C5.41483 446.735 4.39148 447.801 3.10868 447.816H3.06543C1.79704 447.816 0.773684 446.807 0.744857 445.553ZM1672.98 420.56C1671.73 420.315 1670.89 419.104 1671.14 417.85C1671.38 416.596 1672.6 415.76 1673.85 416.005C1675.1 416.236 1675.94 417.461 1675.69 418.715C1675.48 419.825 1674.51 420.603 1673.42 420.603C1673.27 420.603 1673.13 420.589 1672.98 420.56ZM3.22398 416.365C1.94118 416.322 0.946654 415.241 0.989895 413.958C1.03314 412.69 2.09973 411.681 3.38253 411.724C4.66533 411.768 5.65987 412.849 5.61663 414.131C5.57339 415.385 4.55003 416.365 3.31047 416.365H3.22398ZM1677.44 389.427C1676.16 389.326 1675.2 388.216 1675.31 386.933C1675.41 385.665 1676.52 384.713 1677.8 384.8C1679.07 384.901 1680.02 386.025 1679.93 387.293C1679.83 388.519 1678.82 389.441 1677.61 389.441C1677.61 389.441 1677.5 389.441 1677.44 389.441V389.427ZM5.06891 384.958C3.78611 384.843 2.84923 383.719 2.96454 382.436C3.07985 381.168 4.2041 380.231 5.4869 380.346C6.75529 380.461 7.69217 381.586 7.57686 382.854C7.46156 384.065 6.45261 384.973 5.25629 384.973C5.25629 384.973 5.12657 384.973 5.0545 384.973L5.06891 384.958ZM1675.78 355.8C1675.71 354.517 1676.7 353.436 1677.99 353.364C1679.25 353.306 1680.35 354.286 1680.41 355.569C1680.48 356.852 1679.49 357.933 1678.22 358.005H1678.09C1676.86 358.005 1675.84 357.039 1675.78 355.8ZM8.64346 353.71C7.37507 353.523 6.49585 352.341 6.68322 351.072C6.8706 349.804 8.05251 348.925 9.3209 349.112C10.5893 349.299 11.4685 350.481 11.2811 351.75C11.1082 352.903 10.1136 353.724 8.98938 353.724C8.87407 353.724 8.75877 353.724 8.64346 353.71ZM1672.11 324.897C1671.86 323.643 1672.7 322.418 1673.95 322.188C1675.2 321.943 1676.42 322.779 1676.66 324.033C1676.89 325.286 1676.07 326.512 1674.82 326.742C1674.67 326.771 1674.53 326.786 1674.38 326.786C1673.29 326.786 1672.31 326.007 1672.11 324.897ZM13.9764 322.706C12.7225 322.447 11.9009 321.222 12.1604 319.968C12.4198 318.714 13.6449 317.907 14.8989 318.166C16.1529 318.411 16.9745 319.636 16.715 320.905C16.4844 322 15.5187 322.75 14.4377 322.75C14.2935 322.75 14.135 322.75 13.9764 322.706ZM1664.62 294.6C1664.26 293.375 1664.96 292.078 1666.18 291.717C1667.42 291.343 1668.7 292.049 1669.08 293.274C1669.44 294.499 1668.75 295.797 1667.51 296.157C1667.29 296.229 1667.08 296.258 1666.84 296.258C1665.85 296.258 1664.93 295.609 1664.62 294.6ZM21.0535 292.049C19.8139 291.717 19.0788 290.449 19.4103 289.224C19.7419 287.984 21.0102 287.235 22.2498 287.566C23.4894 287.898 24.2245 289.166 23.8929 290.406C23.6191 291.444 22.6822 292.135 21.6588 292.135C21.4571 292.135 21.2553 292.107 21.0535 292.049ZM1654.72 264.88C1654.29 263.683 1654.91 262.343 1656.12 261.91C1657.32 261.478 1658.64 262.098 1659.09 263.308C1659.52 264.519 1658.89 265.845 1657.69 266.278C1657.43 266.364 1657.17 266.407 1656.9 266.407C1655.96 266.407 1655.07 265.831 1654.72 264.88ZM29.8601 261.853C28.6494 261.449 27.9864 260.138 28.3899 258.927C28.7935 257.702 30.1052 257.053 31.3159 257.457C32.541 257.846 33.1897 259.172 32.8005 260.383C32.469 261.363 31.5609 261.968 30.5952 261.968C30.3502 261.968 30.1052 261.939 29.8601 261.853ZM1643.77 235.418C1643.32 234.222 1643.93 232.896 1645.12 232.435C1646.32 231.988 1647.66 232.593 1648.11 233.79C1648.55 235 1647.95 236.326 1646.75 236.788C1646.48 236.889 1646.2 236.932 1645.93 236.932C1644.99 236.932 1644.11 236.355 1643.77 235.418ZM40.6414 232.305C39.4595 231.815 38.9118 230.46 39.4019 229.278C39.8919 228.096 41.2468 227.534 42.4287 228.024C43.6106 228.514 44.1727 229.869 43.6827 231.051C43.3079 231.945 42.4431 232.492 41.5351 232.492C41.2468 232.492 40.9441 232.435 40.6414 232.305ZM1633.07 205.755C1632.66 204.545 1633.3 203.233 1634.53 202.815C1635.74 202.411 1637.05 203.06 1637.46 204.271C1637.87 205.482 1637.22 206.808 1636 207.211C1635.75 207.298 1635.51 207.341 1635.26 207.341C1634.3 207.341 1633.39 206.721 1633.07 205.755ZM53.8586 203.766C52.7199 203.161 52.2875 201.763 52.8929 200.624C53.4983 199.5 54.8964 199.068 56.035 199.673C57.1593 200.264 57.5917 201.676 56.9863 202.801C56.5683 203.593 55.7612 204.04 54.9396 204.026C54.5649 204.026 54.2045 203.939 53.8586 203.766ZM1623.95 175.473C1623.62 174.233 1624.37 172.965 1625.62 172.648C1626.86 172.331 1628.12 173.08 1628.43 174.32C1628.75 175.559 1628 176.828 1626.76 177.145C1626.57 177.188 1626.37 177.217 1626.18 177.217C1625.15 177.217 1624.21 176.525 1623.94 175.473H1623.95ZM69.8864 176.712C68.8342 175.992 68.5604 174.536 69.2811 173.484C70.0017 172.431 71.4431 172.158 72.5097 172.893C73.5619 173.613 73.8357 175.055 73.1151 176.107C72.6538 176.77 71.9331 177.116 71.1981 177.116C70.7368 177.116 70.29 176.986 69.8864 176.712ZM88.9267 151.69C87.961 150.854 87.8456 149.384 88.6816 148.419C89.5176 147.453 90.9878 147.338 91.9535 148.174C92.9336 149.009 93.0345 150.48 92.1985 151.445C91.7373 151.979 91.0887 152.253 90.4401 152.253C89.9068 152.253 89.3591 152.065 88.9267 151.69ZM1617.69 144.412C1617.52 143.143 1618.39 141.961 1619.65 141.774C1620.92 141.587 1622.1 142.466 1622.29 143.72C1622.48 144.988 1621.6 146.17 1620.33 146.357C1620.22 146.357 1620.1 146.386 1619.99 146.386C1618.86 146.386 1617.87 145.565 1617.69 144.412ZM110.46 128.773C109.567 127.836 109.596 126.366 110.518 125.487C111.441 124.593 112.911 124.622 113.804 125.544C114.684 126.467 114.655 127.937 113.732 128.831C113.285 129.263 112.709 129.479 112.132 129.479C111.513 129.479 110.907 129.234 110.46 128.773ZM1614.73 112.86C1614.67 111.578 1615.66 110.497 1616.95 110.439C1618.23 110.396 1619.31 111.39 1619.35 112.659C1619.41 113.941 1618.42 115.022 1617.13 115.08H1617.05C1615.81 115.08 1614.78 114.1 1614.73 112.86ZM133.81 107.7C133.003 106.706 133.133 105.25 134.113 104.429C135.093 103.607 136.563 103.751 137.385 104.731C138.206 105.711 138.062 107.167 137.082 107.989C136.65 108.349 136.116 108.536 135.598 108.536C134.935 108.536 134.272 108.248 133.81 107.7ZM158.443 88.1268C157.679 87.1035 157.881 85.6477 158.904 84.8838C159.928 84.1055 161.383 84.3217 162.162 85.345C162.926 86.3684 162.724 87.8242 161.7 88.5881C161.282 88.9052 160.792 89.0493 160.302 89.0493C159.596 89.0493 158.904 88.7322 158.443 88.1268ZM1617.33 83.6298C1616.05 83.5434 1615.09 82.4335 1615.17 81.1508C1615.26 79.8823 1616.37 78.9166 1617.64 79.0031C1618.92 79.0896 1619.89 80.1995 1619.78 81.4822C1619.68 82.7074 1618.67 83.6443 1617.46 83.6443C1617.46 83.6443 1617.36 83.6443 1617.31 83.6443L1617.33 83.6298ZM183.998 69.7641C183.277 68.6974 183.566 67.2705 184.618 66.5499C185.684 65.8436 187.126 66.1174 187.846 67.184C188.553 68.2507 188.279 69.692 187.212 70.3983C186.809 70.6721 186.362 70.8018 185.915 70.8018C185.166 70.8018 184.43 70.4415 183.998 69.7641ZM210.49 52.8282C209.827 51.7184 210.173 50.2914 211.268 49.6428C212.378 48.9798 213.805 49.3257 214.454 50.4211C215.117 51.531 214.757 52.9435 213.661 53.6065C213.286 53.8371 212.883 53.938 212.479 53.938C211.686 53.938 210.923 53.5489 210.49 52.8282ZM1621.99 52.5832C1620.76 52.2372 1620.04 50.9545 1620.39 49.7149C1620.74 48.4897 1622 47.769 1623.24 48.115C1624.48 48.4609 1625.2 49.7293 1624.86 50.9689C1624.57 51.9922 1623.63 52.6696 1622.62 52.6696C1622.42 52.6696 1622.21 52.6408 1621.99 52.5832ZM237.717 37.0598C237.097 35.9356 237.501 34.5375 238.625 33.9177C239.75 33.2979 241.148 33.7015 241.782 34.8257C242.387 35.95 241.984 37.3625 240.859 37.9823C240.513 38.1697 240.124 38.2706 239.75 38.2706C238.928 38.2706 238.135 37.8382 237.717 37.0598ZM265.449 22.2139C264.858 21.0753 265.305 19.6772 266.443 19.0862C267.582 18.4952 268.98 18.9421 269.571 20.0807C270.162 21.2194 269.715 22.6175 268.577 23.2084C268.231 23.3814 267.87 23.4679 267.51 23.4679C266.674 23.4679 265.867 23.0067 265.449 22.2139ZM1631.63 22.6175C1630.42 22.2139 1629.77 20.8879 1630.18 19.6772C1630.59 18.4664 1631.91 17.8178 1633.12 18.2358C1634.33 18.6394 1634.98 19.951 1634.57 21.1761C1634.24 22.1418 1633.35 22.7473 1632.38 22.7473C1632.14 22.7473 1631.88 22.704 1631.63 22.6175ZM293.497 7.94455C292.921 6.80588 293.382 5.40778 294.535 4.83124C295.674 4.2691 297.072 4.73035 297.649 5.86902C298.211 7.02209 297.749 8.40579 296.611 8.98233C296.279 9.1553 295.919 9.22739 295.573 9.22739C294.723 9.22739 293.901 8.76611 293.497 7.94455ZM321.676 -6.05093C321.099 -7.18961 321.575 -8.58771 322.728 -9.14984C323.867 -9.72638 325.265 -9.25076 325.827 -8.09769C326.403 -6.95901 325.928 -5.56085 324.789 -4.99875C324.458 -4.82578 324.097 -4.75372 323.751 -4.75372C322.901 -4.75372 322.079 -5.22937 321.676 -6.05093ZM1640.51 -7.54996C1639.26 -7.79498 1638.44 -9.00574 1638.67 -10.2597C1638.91 -11.5137 1640.12 -12.3497 1641.39 -12.1046C1642.64 -11.8596 1643.47 -10.6489 1643.22 -9.39487C1643.02 -8.28503 1642.04 -7.50671 1640.96 -7.50671C1640.81 -7.50671 1640.66 -7.52112 1640.51 -7.54996ZM349.825 -20.0897C349.249 -21.2283 349.71 -22.6265 350.849 -23.203C352.002 -23.7795 353.386 -23.3183 353.962 -22.1797C354.553 -21.041 354.092 -19.6429 352.953 -19.0663C352.607 -18.8934 352.247 -18.8069 351.901 -18.8069C351.051 -18.8069 350.243 -19.2825 349.825 -20.0897ZM377.802 -34.4888C377.197 -35.6274 377.629 -37.0255 378.753 -37.6309C379.892 -38.2219 381.29 -37.8039 381.895 -36.6652C382.501 -35.541 382.068 -34.1284 380.93 -33.5375C380.584 -33.3501 380.209 -33.2636 379.849 -33.2636C379.013 -33.2636 378.206 -33.7104 377.802 -34.4888ZM1638.85 -40.6578C1638.62 -41.9117 1639.46 -43.1225 1640.71 -43.3531C1641.98 -43.5981 1643.18 -42.7621 1643.42 -41.4937C1643.65 -40.2397 1642.82 -39.029 1641.56 -38.7984C1641.42 -38.7696 1641.27 -38.7552 1641.15 -38.7552C1640.04 -38.7552 1639.07 -39.5335 1638.85 -40.6578ZM405.389 -49.5941C404.755 -50.7039 405.144 -52.1165 406.254 -52.7507C407.364 -53.3849 408.777 -53.0101 409.425 -51.9003C410.059 -50.7904 409.67 -49.3635 408.56 -48.7293C408.2 -48.5276 407.797 -48.4266 407.407 -48.4266C406.6 -48.4266 405.822 -48.8446 405.389 -49.5941ZM432.415 -65.6796C431.737 -66.775 432.054 -68.2019 433.135 -68.8794C434.231 -69.5712 435.658 -69.2397 436.35 -68.1587C437.027 -67.0777 436.696 -65.6508 435.615 -64.9589C435.24 -64.7139 434.807 -64.5986 434.375 -64.5986C433.611 -64.5986 432.862 -64.9877 432.415 -65.6796ZM1630.21 -70.4649C1629.76 -71.6612 1630.36 -72.9872 1631.57 -73.4341C1632.77 -73.8809 1634.1 -73.2755 1634.56 -72.0792C1634.99 -70.8828 1634.39 -69.5424 1633.19 -69.0956C1632.92 -68.9947 1632.64 -68.9515 1632.38 -68.9515C1631.43 -68.9515 1630.55 -69.528 1630.21 -70.4649ZM458.633 -83.0767C457.869 -84.1144 458.085 -85.5702 459.123 -86.3197C460.161 -87.0836 461.617 -86.853 462.366 -85.8297C463.13 -84.7919 462.899 -83.3361 461.862 -82.5866H461.876C461.458 -82.2839 460.982 -82.1398 460.507 -82.1398C459.786 -82.1398 459.08 -82.4569 458.633 -83.0767ZM1618.11 -99.3351C1617.59 -100.503 1618.1 -101.872 1619.27 -102.405C1620.43 -102.938 1621.8 -102.42 1622.34 -101.252C1622.87 -100.085 1622.34 -98.7153 1621.18 -98.182C1620.88 -98.0379 1620.55 -97.9802 1620.23 -97.9802C1619.35 -97.9802 1618.5 -98.4847 1618.11 -99.3351ZM482.761 -103.212C481.839 -104.12 481.824 -105.591 482.718 -106.499C483.612 -107.421 485.082 -107.435 486.004 -106.542C486.912 -105.648 486.941 -104.178 486.033 -103.256C485.586 -102.794 484.981 -102.564 484.375 -102.564C483.799 -102.564 483.208 -102.78 482.761 -103.212ZM1604.91 -127.903C1604.38 -129.07 1604.9 -130.454 1606.06 -130.973C1607.22 -131.506 1608.6 -131.002 1609.13 -129.834C1609.67 -128.667 1609.13 -127.297 1607.98 -126.764C1607.66 -126.62 1607.35 -126.548 1607.01 -126.548C1606.13 -126.548 1605.3 -127.052 1604.91 -127.903ZM502.248 -127.816C501.138 -128.436 500.735 -129.849 501.369 -130.973C501.989 -132.097 503.401 -132.486 504.526 -131.852C505.635 -131.232 506.039 -129.82 505.405 -128.695C504.987 -127.946 504.194 -127.513 503.387 -127.513C502.998 -127.513 502.609 -127.614 502.248 -127.816ZM1591.69 -156.384C1591.13 -157.522 1591.59 -158.921 1592.74 -159.483C1593.9 -160.059 1595.28 -159.584 1595.86 -158.43C1596.42 -157.292 1595.94 -155.894 1594.81 -155.332C1594.47 -155.159 1594.11 -155.087 1593.78 -155.087C1592.92 -155.087 1592.1 -155.562 1591.69 -156.384ZM513.721 -156.975C512.467 -157.22 511.646 -158.43 511.891 -159.684C512.136 -160.953 513.347 -161.76 514.601 -161.515C515.869 -161.27 516.676 -160.059 516.445 -158.805C516.215 -157.695 515.249 -156.931 514.168 -156.931C514.024 -156.931 513.865 -156.946 513.721 -156.975ZM1576.99 -184.029C1576.36 -185.139 1576.75 -186.551 1577.86 -187.185C1578.97 -187.834 1580.38 -187.445 1581.01 -186.335C1581.65 -185.225 1581.26 -183.813 1580.15 -183.164C1579.79 -182.962 1579.38 -182.861 1578.99 -182.861C1578.19 -182.861 1577.41 -183.279 1576.98 -184.029H1576.99ZM514.255 -190.529C514.255 -191.812 515.264 -192.864 516.546 -192.879C517.829 -192.893 518.881 -191.87 518.896 -190.587C518.896 -189.304 517.887 -188.252 516.604 -188.238H516.575C515.307 -188.238 514.269 -189.261 514.255 -190.529ZM1560.52 -210.622C1559.8 -211.688 1560.08 -213.13 1561.14 -213.836C1562.2 -214.557 1563.64 -214.283 1564.36 -213.216C1565.07 -212.15 1564.8 -210.708 1563.73 -209.988C1563.33 -209.728 1562.88 -209.598 1562.43 -209.598C1561.7 -209.598 1560.96 -209.959 1560.52 -210.622ZM512.655 -221.821C512.568 -223.104 513.534 -224.199 514.817 -224.286C516.085 -224.372 517.195 -223.407 517.281 -222.124C517.368 -220.841 516.388 -219.745 515.119 -219.659H514.961C513.75 -219.659 512.727 -220.596 512.655 -221.821ZM1542.04 -235.845C1541.23 -236.84 1541.4 -238.31 1542.4 -239.103C1543.41 -239.91 1544.86 -239.737 1545.66 -238.742C1546.46 -237.748 1546.29 -236.278 1545.3 -235.485C1544.86 -235.139 1544.36 -234.981 1543.85 -234.981C1543.18 -234.981 1542.5 -235.269 1542.04 -235.845ZM513.88 -251.095C512.597 -251.124 511.588 -252.19 511.617 -253.459C511.66 -254.741 512.727 -255.765 513.995 -255.722C515.278 -255.693 516.287 -254.626 516.258 -253.343C516.229 -252.089 515.192 -251.08 513.938 -251.08C513.938 -251.08 513.909 -251.08 513.88 -251.08V-251.095ZM1521.46 -259.354C1520.56 -260.276 1520.61 -261.746 1521.53 -262.64C1522.46 -263.519 1523.92 -263.476 1524.81 -262.554C1525.69 -261.631 1525.65 -260.161 1524.73 -259.267C1524.28 -258.849 1523.7 -258.633 1523.13 -258.633C1522.52 -258.633 1521.9 -258.878 1521.46 -259.354ZM1499.03 -281.176C1498.09 -282.041 1498.02 -283.496 1498.87 -284.448C1499.73 -285.399 1501.2 -285.471 1502.14 -284.606C1503.09 -283.756 1503.16 -282.286 1502.31 -281.334C1501.85 -280.83 1501.22 -280.57 1500.58 -280.57C1500.04 -280.57 1499.47 -280.772 1499.03 -281.176ZM517.526 -282.271C516.287 -282.588 515.537 -283.857 515.869 -285.096C516.186 -286.336 517.454 -287.071 518.694 -286.754C519.934 -286.422 520.683 -285.154 520.352 -283.914C520.078 -282.877 519.141 -282.185 518.103 -282.185C517.916 -282.185 517.714 -282.214 517.526 -282.271ZM1475.16 -301.441C1474.16 -302.234 1474.01 -303.69 1474.8 -304.699C1475.59 -305.693 1477.05 -305.866 1478.06 -305.059C1479.07 -304.266 1479.22 -302.81 1478.42 -301.802C1477.97 -301.225 1477.29 -300.937 1476.62 -300.937C1476.1 -300.937 1475.59 -301.095 1475.16 -301.441ZM528.639 -311.603C527.515 -312.208 527.097 -313.621 527.702 -314.745C528.322 -315.869 529.72 -316.287 530.845 -315.682C531.969 -315.062 532.387 -313.664 531.781 -312.54C531.363 -311.761 530.556 -311.314 529.735 -311.314C529.374 -311.314 528.985 -311.415 528.639 -311.603ZM1450.17 -320.337C1449.11 -321.072 1448.88 -322.528 1449.63 -323.566C1450.37 -324.604 1451.82 -324.849 1452.86 -324.099C1453.9 -323.35 1454.14 -321.908 1453.4 -320.856C1452.95 -320.236 1452.23 -319.89 1451.51 -319.89C1451.05 -319.89 1450.57 -320.035 1450.17 -320.337ZM545.95 -337.806C544.97 -338.628 544.84 -340.084 545.647 -341.078C546.469 -342.058 547.925 -342.203 548.919 -341.381C549.899 -340.559 550.043 -339.104 549.222 -338.124C548.761 -337.561 548.098 -337.273 547.435 -337.273C546.916 -337.273 546.382 -337.446 545.95 -337.806ZM1424.29 -338.08C1423.23 -338.787 1422.92 -340.214 1423.63 -341.295C1424.34 -342.361 1425.78 -342.649 1426.85 -341.958C1427.91 -341.251 1428.21 -339.81 1427.51 -338.743C1427.06 -338.066 1426.33 -337.691 1425.56 -337.691C1425.13 -337.691 1424.68 -337.821 1424.29 -338.08ZM1397.76 -354.829C1396.66 -355.492 1396.32 -356.919 1396.98 -358.014C1397.64 -359.11 1399.07 -359.456 1400.17 -358.792C1401.26 -358.129 1401.62 -356.703 1400.94 -355.607C1400.51 -354.886 1399.75 -354.483 1398.97 -354.483C1398.55 -354.483 1398.13 -354.598 1397.76 -354.829ZM567.57 -360.637C566.72 -361.589 566.792 -363.059 567.743 -363.909C568.694 -364.774 570.165 -364.688 571.015 -363.736C571.88 -362.785 571.793 -361.315 570.842 -360.464C570.395 -360.061 569.847 -359.859 569.3 -359.859C568.666 -359.859 568.031 -360.133 567.57 -360.637ZM1370.68 -370.684C1369.57 -371.303 1369.16 -372.716 1369.8 -373.84C1370.43 -374.95 1371.84 -375.339 1372.95 -374.719C1374.08 -374.085 1374.47 -372.673 1373.83 -371.563C1373.41 -370.799 1372.62 -370.381 1371.81 -370.381C1371.43 -370.381 1371.04 -370.482 1370.68 -370.684ZM592.015 -380.442C591.266 -381.494 591.511 -382.935 592.549 -383.685C593.601 -384.42 595.042 -384.189 595.792 -383.137C596.527 -382.099 596.282 -380.643 595.244 -379.908C594.841 -379.62 594.365 -379.476 593.904 -379.476C593.183 -379.476 592.462 -379.807 592.015 -380.442ZM1343.09 -385.63C1341.95 -386.221 1341.5 -387.62 1342.09 -388.758C1342.68 -389.897 1344.1 -390.344 1345.24 -389.753C1346.36 -389.147 1346.81 -387.749 1346.22 -386.625C1345.8 -385.818 1344.99 -385.371 1344.16 -385.371C1343.79 -385.371 1343.43 -385.457 1343.09 -385.63ZM618.32 -397.709C617.672 -398.819 618.032 -400.231 619.142 -400.88C620.237 -401.543 621.664 -401.168 622.313 -400.058C622.961 -398.963 622.601 -397.536 621.491 -396.887C621.131 -396.671 620.713 -396.57 620.324 -396.57C619.516 -396.57 618.753 -396.974 618.32 -397.709ZM1315.01 -399.655C1313.86 -400.217 1313.37 -401.601 1313.93 -402.754C1314.48 -403.907 1315.86 -404.397 1317.01 -403.849C1318.17 -403.287 1318.66 -401.903 1318.11 -400.75C1317.71 -399.914 1316.88 -399.439 1316.02 -399.439C1315.67 -399.439 1315.34 -399.511 1315.01 -399.655ZM645.893 -412.858C645.317 -414.011 645.778 -415.394 646.917 -415.971C648.07 -416.547 649.453 -416.086 650.03 -414.948C650.606 -413.809 650.145 -412.411 649.006 -411.834C648.675 -411.661 648.315 -411.589 647.969 -411.589C647.118 -411.589 646.297 -412.05 645.893 -412.858ZM1286.49 -412.742C1285.32 -413.247 1284.77 -414.616 1285.29 -415.783C1285.81 -416.965 1287.16 -417.499 1288.35 -416.98C1289.51 -416.475 1290.05 -415.106 1289.54 -413.924C1289.15 -413.059 1288.3 -412.54 1287.41 -412.54C1287.11 -412.54 1286.79 -412.598 1286.49 -412.742ZM1257.53 -424.821C1256.33 -425.296 1255.76 -426.637 1256.22 -427.833C1256.69 -429.015 1258.05 -429.606 1259.23 -429.13C1260.43 -428.655 1261 -427.314 1260.54 -426.118C1260.17 -425.21 1259.3 -424.662 1258.38 -424.662C1258.09 -424.662 1257.8 -424.705 1257.53 -424.821ZM674.273 -426.435C673.754 -427.603 674.273 -428.972 675.455 -429.491C676.623 -430.01 677.992 -429.491 678.511 -428.309C679.03 -427.141 678.511 -425.772 677.329 -425.253C677.026 -425.109 676.709 -425.051 676.392 -425.051C675.498 -425.051 674.648 -425.57 674.273 -426.435ZM1228.16 -435.89C1226.96 -436.308 1226.32 -437.649 1226.76 -438.845C1227.19 -440.056 1228.52 -440.69 1229.71 -440.258C1230.91 -439.825 1231.54 -438.499 1231.11 -437.288C1230.76 -436.337 1229.87 -435.746 1228.92 -435.746C1228.66 -435.746 1228.4 -435.789 1228.14 -435.89H1228.16ZM703.273 -438.6C702.812 -439.796 703.403 -441.151 704.599 -441.612C705.796 -442.074 707.136 -441.483 707.597 -440.286C708.059 -439.09 707.468 -437.75 706.271 -437.274C705.997 -437.173 705.724 -437.13 705.435 -437.13C704.513 -437.13 703.634 -437.692 703.273 -438.6ZM1198.42 -445.893C1197.2 -446.282 1196.53 -447.594 1196.91 -448.805C1197.3 -450.03 1198.61 -450.707 1199.82 -450.318C1201.04 -449.929 1201.72 -448.632 1201.33 -447.407C1201.01 -446.412 1200.11 -445.792 1199.13 -445.792C1198.9 -445.792 1198.65 -445.821 1198.42 -445.893ZM732.821 -449.381C732.417 -450.592 733.08 -451.918 734.291 -452.322C735.502 -452.725 736.813 -452.077 737.232 -450.852C737.635 -449.641 736.972 -448.329 735.761 -447.926C735.516 -447.839 735.271 -447.796 735.026 -447.796C734.061 -447.796 733.152 -448.416 732.821 -449.381ZM1168.34 -454.815C1167.11 -455.161 1166.38 -456.444 1166.72 -457.669C1167.07 -458.909 1168.34 -459.629 1169.58 -459.283C1170.82 -458.952 1171.54 -457.669 1171.19 -456.43C1170.92 -455.406 1169.98 -454.729 1168.97 -454.729C1168.76 -454.729 1168.56 -454.758 1168.34 -454.815ZM762.859 -458.765C762.498 -460.004 763.219 -461.287 764.459 -461.633C765.698 -461.979 766.981 -461.272 767.327 -460.033C767.673 -458.808 766.966 -457.525 765.727 -457.179C765.511 -457.107 765.309 -457.078 765.093 -457.078C764.084 -457.078 763.147 -457.756 762.873 -458.765H762.859ZM1137.96 -462.613C1136.72 -462.916 1135.94 -464.17 1136.24 -465.409C1136.53 -466.649 1137.78 -467.427 1139.02 -467.139C1140.28 -466.836 1141.04 -465.582 1140.75 -464.343C1140.49 -463.276 1139.54 -462.555 1138.49 -462.555C1138.32 -462.555 1138.13 -462.57 1137.96 -462.613ZM793.286 -466.764C792.983 -468.004 793.761 -469.258 795.015 -469.546C796.255 -469.849 797.494 -469.07 797.797 -467.816C798.085 -466.577 797.307 -465.323 796.067 -465.034C795.894 -464.991 795.707 -464.977 795.534 -464.977C794.482 -464.977 793.531 -465.697 793.286 -466.764ZM1107.3 -469.258C1106.04 -469.503 1105.22 -470.728 1105.47 -471.982C1105.71 -473.236 1106.94 -474.057 1108.19 -473.812C1109.45 -473.567 1110.27 -472.342 1110.02 -471.088C1109.81 -469.978 1108.83 -469.214 1107.74 -469.214C1107.6 -469.214 1107.44 -469.214 1107.3 -469.258ZM824.044 -473.365C823.799 -474.619 824.635 -475.845 825.889 -476.075C827.143 -476.306 828.354 -475.484 828.599 -474.23C828.829 -472.962 828.008 -471.751 826.739 -471.52C826.595 -471.492 826.451 -471.477 826.307 -471.477C825.226 -471.477 824.246 -472.256 824.044 -473.365ZM1076.41 -474.706C1075.14 -474.908 1074.28 -476.09 1074.48 -477.358C1074.67 -478.626 1075.86 -479.491 1077.12 -479.289H1077.13C1078.38 -479.102 1079.25 -477.906 1079.06 -476.637C1078.87 -475.499 1077.89 -474.677 1076.77 -474.677C1076.65 -474.677 1076.53 -474.677 1076.41 -474.706ZM855.062 -478.598C854.874 -479.866 855.754 -481.033 857.036 -481.221C858.305 -481.408 859.487 -480.515 859.66 -479.246C859.847 -477.978 858.968 -476.81 857.7 -476.623C857.584 -476.608 857.469 -476.608 857.368 -476.608C856.229 -476.608 855.235 -477.444 855.076 -478.598H855.062ZM1045.33 -478.943C1044.05 -479.088 1043.14 -480.241 1043.29 -481.509C1043.43 -482.777 1044.58 -483.685 1045.85 -483.541C1047.14 -483.397 1048.04 -482.244 1047.9 -480.976C1047.76 -479.794 1046.76 -478.929 1045.59 -478.929C1045.51 -478.929 1045.42 -478.929 1045.33 -478.929V-478.943ZM886.281 -482.446C886.152 -483.729 887.089 -484.867 888.357 -484.983C889.64 -485.112 890.778 -484.176 890.894 -482.907C891.023 -481.639 890.087 -480.5 888.818 -480.37C888.818 -480.37 888.66 -480.356 888.588 -480.356C887.406 -480.356 886.397 -481.264 886.281 -482.446ZM1014.1 -481.884C1012.83 -481.985 1011.87 -483.095 1011.97 -484.363C1012.05 -485.646 1013.16 -486.611 1014.45 -486.511C1015.71 -486.424 1016.68 -485.314 1016.59 -484.031C1016.49 -482.806 1015.48 -481.884 1014.27 -481.884H1014.1ZM917.645 -484.954C917.573 -486.237 918.553 -487.332 919.836 -487.39C921.104 -487.462 922.2 -486.482 922.272 -485.213C922.344 -483.931 921.364 -482.835 920.081 -482.763H919.951C918.726 -482.763 917.717 -483.714 917.645 -484.954ZM982.78 -483.513C981.511 -483.556 980.502 -484.622 980.531 -485.905C980.575 -487.188 981.656 -488.197 982.924 -488.154C984.207 -488.11 985.216 -487.044 985.172 -485.761C985.129 -484.507 984.106 -483.513 982.852 -483.513H982.78ZM949.081 -486.107C949.081 -487.375 950.09 -488.428 951.373 -488.442C952.656 -488.456 953.708 -487.433 953.722 -486.15C953.722 -484.867 952.713 -483.83 951.43 -483.801H951.402C950.133 -483.801 949.095 -484.824 949.081 -486.107Z" fill="#F5F5F5"/>
</svg>
